<svg xmlns="http://www.w3.org/2000/svg" xmlns:xlink="http://www.w3.org/1999/xlink" version="1.1" x="0px" y="0px" viewBox="0 0 1024 1024"  xml:space="preserve"><g><path d="M920.86,885.33l-39.17-249.84c-4.03-25.71-25.85-44.38-51.88-44.38H115.8c-5.06,0-9.52,2.87-11.62,7.47   c-2.11,4.61-1.36,9.86,1.96,13.69L210.09,732.2c5.88,17.47,13.44,34.39,22.6,50.46c23.08,40.52,55.9,75.18,95.13,100.5l-7.29,34.35   c-0.7,2.9-0.07,5.9,1.75,8.27c1.88,2.45,4.72,3.85,7.8,3.85h310.63c3.09,0,5.93-1.4,7.8-3.85c1.82-2.37,2.46-5.37,1.76-8.27   l-7.3-34.35c39.23-25.32,72.05-59.98,95.13-100.5c20.41-35.83,32.87-75.8,36.57-116.9h36.74l45.41,196.77   c5.14,22.28,24.87,37.63,47.22,37.63c1.94,0,3.9-0.11,5.87-0.35c6.33-0.77,11.1-6.16,11.1-12.52   C921.01,886.6,920.96,885.96,920.86,885.33z M607.84,824.7l-7.9-12.75c44.67-27.7,76.72-70.72,90.26-121.15l14.48,3.89   C690.15,748.81,655.76,794.98,607.84,824.7z"></path><path d="M900.24,110.53l-0.02,0.01L659.93,311.42c-22.49,18.8-38.88,43.55-47.42,71.59l-8.01,26.26   c-8.57,28.14-25.3,52.64-48.39,70.86c-0.22,0.17-0.43,0.34-0.65,0.51l-4.22-6.23l-4.21-6.23L426.66,290.26l-4.21-6.22l-4.21-6.23   c21.73-12.68,46.29-19.38,71.59-19.49c4.21-0.01,8.55,0.15,12.89,0.52l27.36,2.34c27.18,2.33,54.49-2.78,78.97-14.77   c1.7-0.82,3.36-1.68,5.11-2.62L890.02,95.48c4.13-2.23,9.25-0.98,11.89,2.9C904.56,102.28,903.84,107.5,900.24,110.53z"></path><path d="M539.02,483.1l4.2,6.22l-24.13,16.32c-1.5,1.01-3.23,1.54-5,1.54c-0.58,0-1.15-0.06-1.73-0.17   c-2.35-0.45-4.38-1.79-5.72-3.78l-0.85-1.26l-79.04,53.47l-11.21-16.57l79.03-53.47l-11.71-17.31l-79.03,53.47l-11.21-16.57   l79.03-53.47l-11.72-17.32l-79.03,53.47l-11.2-16.56l79.03-53.47l-11.72-17.32l-79.03,53.47l-11.21-16.56l79.03-53.47l-11.71-17.32   l-79.03,53.47l-11.21-16.56l79.03-53.47l-11.71-17.32l-79.03,53.47l-11.21-16.56L379.96,316l-0.86-1.27   c-2.77-4.1-1.69-9.68,2.4-12.46l24.13-16.32l4.2,6.21l4.2,6.21l120.79,178.52L539.02,483.1z"></path></g></svg>