<svg xmlns="http://www.w3.org/2000/svg" xmlns:xlink="http://www.w3.org/1999/xlink" xmlns:sketch="http://www.bohemiancoding.com/sketch/ns" viewBox="0 0 100 100" version="1.1" x="0px" y="0px"><title>paint-4</title><desc>Created with Sketch.</desc><g stroke="none" stroke-width="1"  fill-rule="evenodd" sketch:type="MSPage"><path d="M84.957218,20.3384628 L84.957218,28.3913479 C84.957218,32.0976946 82.9346425,35.5016288 79.6783265,37.2735608 L79.3948789,37.4006766 L51.4904094,47.4828006 C49.9214525,48.393626 48.9521949,50.0707338 48.9521949,51.892897 L48.9521949,53.1707178 C51.8486913,54.1153723 53.9430257,56.8345217 53.9430257,60.0462446 L53.9430257,87.7651662 C53.9430257,91.7611112 50.704137,95 46.7087045,95 L46.7087045,95 C42.713272,95 39.4738707,91.7611112 39.4738707,87.7651662 L39.4738707,60.0462446 C39.4738707,56.6935668 41.757341,53.882156 44.8516869,53.0610292 L44.8516869,51.892897 C44.8516869,48.519204 46.6923024,45.4222954 49.6549195,43.8107957 L49.9383671,43.68368 L77.8443743,33.6010434 C79.706005,32.5292731 80.85671,30.5466774 80.85671,28.3913479 L80.85671,20.3384628 C80.85671,19.2292753 79.9540857,18.326651 78.8448983,18.326651 L77.4168964,18.326651 L77.4168964,24.0017541 C77.4168964,25.9628221 75.8269244,27.552794 73.8658564,27.552794 L19.5515525,27.552794 C17.589972,27.552794 16,25.9628221 16,24.0017541 L16,8.5515525 C16,6.58997198 17.589972,5 19.5515525,5 L73.8658564,5 C75.8269244,5 77.4168964,6.58997198 77.4168964,8.5515525 L77.4168964,14.226143 L78.8448983,14.226143 C82.2150033,14.226143 84.957218,16.9683577 84.957218,20.3384628"  sketch:type="MSShapeGroup"></path></g></svg>