<svg xmlns="http://www.w3.org/2000/svg" xmlns:xlink="http://www.w3.org/1999/xlink" xmlns:sketch="http://www.bohemiancoding.com/sketch/ns" viewBox="0 0 59 60" version="1.1" x="0px" y="0px"><title>4 - Color Bucket (Solid)</title><desc>Created with Sketch.</desc><g stroke="none" stroke-width="1"  fill-rule="evenodd" sketch:type="MSPage"><g sketch:type="MSLayerGroup" ><path d="M6.172,39.293 C5.781,38.902 5.148,38.902 4.758,39.293 L2.258,41.793 C0.489,43.562 0.489,46.438 2.258,48.207 C3.113,49.063 4.253,49.536 5.465,49.536 C6.676,49.536 7.815,49.063 8.672,48.207 C10.44,46.438 10.44,43.562 8.672,41.793 L6.172,39.293" sketch:type="MSShapeGroup"></path><path d="M37.389,25.094 L48.008,35.713 C50.341,33.2 51.926,30.649 52.265,28.882 L52.46,25.176 L41.587,14.303 L41.267,16.169 C40.984,18.055 39.553,20.635 37.343,23.226 C36.865,23.787 36.885,24.59 37.389,25.094" sketch:type="MSShapeGroup"></path><path d="M30.354,51.793 L19.841,41.309 C19.529,40.999 19.048,40.929 18.644,41.136 C17.305,41.816 16.131,42.238 15.155,42.393 L15.05,42.403 L13.21,42.495 L24.907,54.191 L27.632,53.112 C28.464,52.836 29.472,52.292 30.354,51.793" sketch:type="MSShapeGroup"></path><path d="M58.246,30.962 L54.357,27.072 L54.244,29.176 C53.859,31.337 52.123,34.218 49.479,37.08 C49.111,37.479 48.606,37.705 48.06,37.717 L48.019,37.717 C47.487,37.717 46.97,37.503 46.594,37.127 L35.975,26.508 C34.726,25.259 34.66,23.291 35.821,21.929 C37.766,19.648 39.063,17.376 39.292,15.852 L39.856,12.572 L33.497,6.213 C32.997,5.713 32.308,5.459 31.447,5.459 C30.72,5.459 29.84,5.666 28.855,6.038 C28.172,2.6 25.135,0 21.5,0 C17.364,0 14,3.364 14,7.5 L14,17.256 C7.506,24.043 2.577,31.861 5.213,34.497 L11.302,40.586 L14.894,40.408 C15.646,40.281 16.628,39.917 17.738,39.353 C18.917,38.754 20.329,38.973 21.251,39.891 L31.771,50.36 C32.219,50.808 32.427,51.424 32.341,52.052 C32.256,52.682 31.891,53.222 31.338,53.534 C29.967,54.31 29.062,54.745 28.313,54.992 L26.447,55.731 L29.962,59.246 C30.462,59.746 31.152,60 32.013,60 C35.411,60 41.975,55.719 48.347,49.347 C55.374,42.319 61.031,33.747 58.246,30.962 L58.246,30.962 Z M27,20.941 C27.702,20.131 28.37,19.319 29,18.511 L29,30 L27,30 L27,20.941 L27,20.941 Z M32.083,7.627 L32.084,7.629 C32.339,7.886 32.344,8.794 31.723,10.362 C31.256,11.514 30.475,12.971 29.333,14.674 C29.261,14.781 29.193,14.886 29.119,14.993 C29.081,15.048 29.038,15.106 29,15.161 L29,8.116 C30.008,7.68 30.839,7.459 31.447,7.459 C31.622,7.459 31.937,7.481 32.083,7.627 L32.083,7.627 Z M21.5,2 C24.326,2 26.66,4.145 26.964,6.892 C23.804,8.528 19.898,11.476 16,15.246 L16,7.5 C16,4.468 18.468,2 21.5,2 L21.5,2 Z M16.527,17.527 C20.47,13.585 24.153,10.773 27,9.138 L27,17.832 C26.931,17.919 26.859,18.006 26.788,18.093 C26.523,18.42 26.253,18.748 25.973,19.078 C25.878,19.191 25.776,19.306 25.678,19.42 C25.39,19.754 25.099,20.089 24.798,20.424 C24.648,20.592 24.487,20.763 24.331,20.933 C24.072,21.216 23.814,21.499 23.547,21.781 C23.109,22.242 22.658,22.709 22.184,23.184 C15.574,29.793 9.675,33.251 7.264,33.251 C7.22,33.251 7.168,33.25 7.111,33.245 C6.943,33.232 6.739,33.193 6.629,33.084 L6.627,33.083 C5.667,32.123 8.292,25.763 16.527,17.527 L16.527,17.527 Z M31.535,33.535 C30.592,34.48 29.336,35 28,35 C26.664,35 25.408,34.48 24.465,33.535 C23.521,32.592 23,31.336 23,30 C23,28.664 23.521,27.408 24.465,26.465 L25.879,27.879 C25.312,28.445 25,29.198 25,30 C25,30.802 25.312,31.555 25.879,32.121 C27.012,33.254 28.988,33.254 30.121,32.121 C30.687,31.555 31,30.802 31,30 C31,29.198 30.687,28.445 30.121,27.879 L31.535,26.465 C32.479,27.408 33,28.664 33,30 C33,31.336 32.479,32.592 31.535,33.535 L31.535,33.535 Z" sketch:type="MSShapeGroup"></path></g></g></svg>