<svg xmlns="http://www.w3.org/2000/svg" xmlns:xlink="http://www.w3.org/1999/xlink" version="1.1" x="0px" y="0px" viewBox="0 0 100 100" enable-background="new 0 0 100 100" xml:space="preserve"><g><path d="M87.841,8.847c-0.396-0.8-1.189-1.327-2.08-1.385c-0.004,0-0.006,0.001-0.01,0.001c-0.043-0.003-0.195-0.012-0.459-0.012   c-1.801,0-11.139,0.531-18.146,11.02c-3.994,5.979-4.625,11.036-5.084,14.727c-0.406,3.264-0.65,4.75-2.137,5.832   c-0.605,0.441-1.182,0.656-1.758,0.656c-1.588,0-3.422-1.531-5.039-2.883c-0.727-0.607-1.414-1.18-2.105-1.643   c-2.551-1.703-4.566-2.463-6.537-2.463c-2.871,0-5.365,1.646-7.629,5.029c-0.002,0.004-0.006,0.006-0.008,0.01l-7.734,11.576   c0,0-0.002,0-0.002,0.002L11.095,76.324c-0.502,0.754-0.557,1.721-0.145,2.527s1.229,1.326,2.135,1.359   c14.619,0.531,18.799,4.002,22.488,7.064c2.889,2.4,5.875,4.881,12.504,5.252c0.27,0.014,0.539,0.021,0.809,0.021   c11.799,0,21.35-14.383,21.971-15.338c0.002-0.002,0.004-0.004,0.004-0.006l7.734-11.576c2.068-3.098,2.717-5.807,1.98-8.281   c-0.805-2.699-3.109-4.516-5.027-5.797c-0.691-0.463-1.484-0.879-2.326-1.318c-3.908-2.047-5.199-3.176-4.654-5.43   c0.43-1.785,1.711-2.578,4.568-4.201c3.236-1.838,7.666-4.355,11.662-10.338C92.552,18.662,88.036,9.242,87.841,8.847z    M29.88,77.996c8.115-2.197,12.539-8.492,12.598-8.578l-2.062-1.412c-0.27,0.393-6.191,8.781-17.113,8.227   c-1.686-0.309-3.539-0.566-5.633-0.75L31.884,54.17l33.357,22.287c-2.887,3.76-9.693,11.48-16.885,11.078   c-4.982-0.279-6.916-1.885-9.59-4.105C36.599,81.629,34.136,79.6,29.88,77.996z M82.622,14.417   c1.449,0.969,1.887,2.858,0.975,4.221c-0.912,1.363-2.824,1.684-4.275,0.715c-1.445-0.968-1.883-2.857-0.971-4.221   C79.261,13.77,81.173,13.45,82.622,14.417z M68.091,72.35L52.413,61.873l4.959-7.418L73.048,64.93L68.091,72.35z M39.616,42.592   l15.678,10.474l-4.959,7.42L34.659,50.012L39.616,42.592z"></path></g></svg>