<svg xmlns="http://www.w3.org/2000/svg" xmlns:xlink="http://www.w3.org/1999/xlink" version="1.1" x="0px" y="0px" viewBox="0 0 64 64"  xml:space="preserve"><path d="M61,37h-0.127l0.571-1.159l-0.827-0.408l1.019-1.192L24.424,2.422c-0.203-0.173-0.467-0.26-0.73-0.236  c-0.266,0.021-0.512,0.148-0.683,0.352l-8.567,10.149l-0.168-0.083c-0.497-0.244-1.095-0.041-1.34,0.455L2.771,33.69  c-0.117,0.238-0.135,0.513-0.05,0.764c0.086,0.251,0.268,0.458,0.505,0.575L7.227,37H3c-0.553,0-1,0.448-1,1v23c0,0.552,0.447,1,1,1  h54c2.757,0,5-2.243,5-5V38C62,37.448,61.553,37,61,37z M23.89,4.596L59.046,34.66l-18.723-9.224l1.503-1.781  c0.172-0.203,0.255-0.465,0.232-0.729c-0.022-0.264-0.148-0.509-0.352-0.68l-6.878-5.805c-0.423-0.358-1.054-0.303-1.408,0.119  l-3.265,3.867l-1.848-0.911l3.585-4.247c0.355-0.422,0.303-1.053-0.119-1.409l-6.877-5.805c-0.204-0.171-0.467-0.257-0.729-0.232  c-0.265,0.022-0.509,0.149-0.68,0.352l-5.346,6.333l-1.85-0.911L23.89,4.596z M39.653,23.129l-1.178,1.396l-6.471-3.188l2.299-2.724  L39.653,23.129z M26.459,18.605l-6.47-3.187l4.381-5.189l5.349,4.515L26.459,18.605z M5.007,33.677l9.281-18.838L59.271,37h-4.525  l-3.666-1.805c-0.493-0.245-1.094-0.04-1.339,0.455L49.075,37h-2.229l1.102-2.234c0.117-0.238,0.135-0.513,0.05-0.764  c-0.086-0.251-0.268-0.458-0.505-0.575l-8.073-3.978c-0.239-0.117-0.512-0.135-0.765-0.05c-0.251,0.085-0.458,0.267-0.575,0.505  L34.584,37h-2.23l3.933-7.979c0.117-0.238,0.135-0.513,0.05-0.764c-0.086-0.251-0.268-0.458-0.505-0.575l-8.074-3.978  c-0.239-0.117-0.511-0.135-0.765-0.05c-0.251,0.085-0.458,0.267-0.575,0.505L20.092,37h-2.291c0.078-0.078,0.145-0.168,0.194-0.269  l6.629-13.456c0.243-0.496,0.04-1.095-0.455-1.339l-8.073-3.978c-0.239-0.117-0.511-0.135-0.765-0.05  c-0.251,0.085-0.458,0.267-0.575,0.505L8.127,31.87c-0.243,0.496-0.04,1.095,0.455,1.339L16.278,37h-4.525L5.007,33.677z   M45.711,34.779L44.616,37h-7.802l2.618-5.315L45.711,34.779z M30.124,37h-7.802l5.448-11.06l6.28,3.094L30.124,37z M16.643,34.95  l-6.279-3.094l5.745-11.662l6.279,3.094L16.643,34.95z M60,57c0,1.654-1.346,3-3,3H4V39h7.52h9.194h10.032h4.46h10.032h4.459h4.814  H60V57z"></path><path d="M16,41H7c-0.553,0-1,0.448-1,1v15c0,0.552,0.447,1,1,1h9c0.553,0,1-0.448,1-1V42C17,41.448,16.553,41,16,41z M15,56H8V43h7  V56z"></path><path d="M29,41h-9c-0.553,0-1,0.448-1,1v15c0,0.552,0.447,1,1,1h9c0.553,0,1-0.448,1-1V42C30,41.448,29.553,41,29,41z M28,56h-7V43  h7V56z"></path><path d="M42,41h-9c-0.553,0-1,0.448-1,1v15c0,0.552,0.447,1,1,1h9c0.553,0,1-0.448,1-1V42C43,41.448,42.553,41,42,41z M41,56h-7V43  h7V56z"></path><path d="M53,41h-7c-0.553,0-1,0.448-1,1v15c0,0.552,0.447,1,1,1h7c0.553,0,1-0.448,1-1V42C54,41.448,53.553,41,53,41z M52,56h-5V43  h5V56z"></path><rect x="45" y="14" width="2" height="2"></rect><rect x="49" y="14" width="2" height="2"></rect><rect x="53" y="14" width="2" height="2"></rect><rect x="49" y="18" width="2" height="2"></rect><rect x="49" y="10" width="2" height="2"></rect><rect x="56" y="41" width="2" height="2"></rect><rect x="56" y="45" width="2" height="2"></rect><rect x="56" y="49" width="2" height="2"></rect></svg>