<svg xmlns="http://www.w3.org/2000/svg" xmlns:xlink="http://www.w3.org/1999/xlink" version="1.1" x="0px" y="0px" viewBox="0 0 512 512"  xml:space="preserve"><g><g><g><g><path d="M456,495.341H56c-3.866,0-7-3.134-7-7s3.134-7,7-7h393v-376.06H63v233.061c0,3.866-3.134,7-7,7s-7-3.134-7-7V98.281      c0-3.866,3.134-7,7-7h400c3.866,0,7,3.134,7,7v390.06C463,492.207,459.866,495.341,456,495.341z"></path></g><g><path d="M416,105.281H66c-10.35,0-19.841-4.19-26.726-11.798c-7.966-8.804-11.608-21.406-10.273-35.518      c0.184-21.916,17.307-39.685,38.33-39.685h354.32c3.048,0,5.745,1.972,6.67,4.876s-0.136,6.073-2.623,7.835      C417.747,36.625,413,46.827,413,58.281c0,3.866-3.134,7-7,7s-7-3.134-7-7c0-9.54,2.477-18.54,6.949-26.001H67.331      C53.915,32.279,43,43.961,43,58.32c0,0.233-0.012,0.466-0.035,0.698c-1.028,10.264,1.348,19.167,6.69,25.072      c4.196,4.637,10,7.191,16.344,7.191h350c3.866,0,7,3.134,7,7S419.866,105.281,416,105.281z"></path></g><g><path d="M486,345.341h-30c-3.866,0-7-3.134-7-7s3.134-7,7-7h23V70.033c0-12.101-4.617-23.256-12.668-30.606      c-7.059-6.444-16.314-9.504-26.075-8.613l-16.004,1.28C417.175,37.898,413,47.539,413,58.281c0,3.866-3.134,7-7,7s-7-3.134-7-7      c0-15.986,6.955-30.458,18.604-38.713c1.027-0.729,2.233-1.166,3.489-1.266l17.97-1.437c13.649-1.249,26.71,3.094,36.708,12.222      C486.721,39.083,493,54.008,493,70.033v268.308C493,342.207,489.866,345.341,486,345.341z"></path></g><g><path d="M422.566,105.342c-1.24,0-2.496-0.33-3.633-1.021C405.185,95.952,399,72.36,399,58.281c0-3.866,3.134-7,7-7s7,3.134,7,7      c0,12.292,5.65,29.478,13.213,34.081c3.303,2.01,4.35,6.317,2.34,9.619C427.234,104.146,424.929,105.342,422.566,105.342z"></path></g><g><path d="M422.566,105.342c-1.24,0-2.496-0.33-3.633-1.021C405.185,95.952,399,72.36,399,58.281c0-3.866,3.134-7,7-7s7,3.134,7,7      c0,12.292,5.65,29.478,13.213,34.081c3.303,2.01,4.35,6.317,2.34,9.619C427.234,104.146,424.929,105.342,422.566,105.342z"></path></g><g><path d="M456,285.341c-3.866,0-7-3.134-7-7V98.281c0-3.866,3.134-7,7-7s7,3.134,7,7v180.06      C463,282.207,459.866,285.341,456,285.341z"></path></g><rect x="405.727" y="238.342" width="20" height="20"></rect><rect x="405.727" y="268.341" width="20" height="20"></rect><rect x="405.727" y="298.341" width="20" height="20"></rect><rect x="405.727" y="328.341" width="20" height="20"></rect><rect x="405.727" y="358.341" width="20" height="20"></rect><g><g><path d="M250.726,345.341c-36.944,0-67-30.056-67-67c0-36.944,30.056-67,67-67s67,30.056,67,67       C317.727,315.285,287.67,345.341,250.726,345.341z M250.726,225.341c-29.224,0-53,23.775-53,53c0,29.225,23.776,53,53,53       s53-23.775,53-53C303.727,249.117,279.95,225.341,250.726,225.341z"></path></g><g><g><path d="M205.726,265.342c-36.944,0-67-30.056-67-67c0-36.944,30.056-67,67-67c36.944,0,67,30.056,67,67        C272.727,235.286,242.67,265.342,205.726,265.342z M205.726,145.341c-29.224,0-53,23.776-53,53c0,29.225,23.776,53,53,53        c29.225,0,53-23.776,53-53C258.727,169.117,234.951,145.341,205.726,145.341z"></path></g><g><path d="M295.727,265.342c-36.944,0-67-30.056-67-67c0-36.944,30.056-67,67-67s67,30.056,67,67        C362.727,235.286,332.671,265.342,295.727,265.342z M295.727,145.341c-29.225,0-53,23.776-53,53c0,29.225,23.776,53,53,53        s53-23.776,53-53C348.727,169.117,324.951,145.341,295.727,145.341z"></path></g></g></g><g><path d="M246,425.341H46c-14.888,0-27-12.112-27-27s12.112-27,27-27h200c3.866,0,7,3.134,7,7v40      C253,422.207,249.866,425.341,246,425.341z M46,385.341c-7.168,0-13,5.832-13,13s5.832,13,13,13h193v-26H46z"></path></g><g><path d="M316,435.341c-0.567,0-1.137-0.068-1.697-0.209l-40-10c-3.116-0.779-5.303-3.579-5.303-6.791v-40      c0-3.212,2.187-6.012,5.303-6.791l40-10c2.041-0.514,4.21-0.074,5.897,1.191l40,30c1.763,1.321,2.8,3.396,2.8,5.6      s-1.037,4.278-2.8,5.6l-40,30C318.977,434.858,317.499,435.341,316,435.341z M283,412.875l31.466,7.867l29.867-22.401      l-29.867-22.401L283,383.807V412.875z"></path></g><g><path d="M261,435.341c-12.131,0-22-9.869-22-22v-30c0-12.131,9.869-22,22-22s22,9.869,22,22v30      C283,425.472,273.131,435.341,261,435.341z M261,375.341c-4.411,0-8,3.589-8,8v30c0,4.411,3.589,8,8,8s8-3.589,8-8v-30      C269,378.93,265.411,375.341,261,375.341z"></path></g><g><path d="M146,455.341H66c-3.866,0-7-3.134-7-7v-70c0-3.866,3.134-7,7-7s7,3.134,7,7v63h73c3.866,0,7,3.134,7,7      S149.866,455.341,146,455.341z"></path></g><g><path d="M356,405.341h-40c-3.866,0-7-3.134-7-7s3.134-7,7-7h40c3.866,0,7,3.134,7,7S359.866,405.341,356,405.341z"></path></g><g><path d="M136,325.341H96c-3.866,0-7-3.134-7-7s3.134-7,7-7h40c3.866,0,7,3.134,7,7S139.866,325.341,136,325.341z"></path></g><g><path d="M136,295.341H96c-3.866,0-7-3.134-7-7s3.134-7,7-7h40c3.866,0,7,3.134,7,7S139.866,295.341,136,295.341z"></path></g><g><path d="M136,265.342H96c-3.866,0-7-3.134-7-7s3.134-7,7-7h40c3.866,0,7,3.134,7,7S139.866,265.342,136,265.342z"></path></g></g></g></g></svg>