<svg xmlns="http://www.w3.org/2000/svg" xmlns:xlink="http://www.w3.org/1999/xlink" version="1.1" x="0px" y="0px" viewBox="0 0 32 32" enable-background="new 0 0 32 32" xml:space="preserve"><g display="none"><path display="inline" d="M32,12c0-3.518-2.617-6.408-6-6.898V3h-4H4H0v4v9c0,7.168,5.832,13,13,13   c6.158,0,11.318-4.308,12.654-10.066C29.203,18.598,32,15.635,32,12z M22,16c0,4.971-4.029,9-9,9c-4.971,0-9-4.029-9-9V7h18V16z    M26,14.817V9.184c1.162,0.412,2,1.512,2,2.816C28,13.305,27.162,14.403,26,14.817z"></path></g><g display="none"><path display="inline" fill-rule="evenodd" clip-rule="evenodd" d="M24,2V0H8v2C5.791,2,4,3.791,4,6s1.791,4,4,4   c0,3.723,2.557,6.824,6,7.717V26h-4l-2,4v2h16v-2l-2-4h-4v-8.283c3.445-0.893,6-3.994,6-7.717c2.209,0,4-1.791,4-4S26.209,2,24,2z    M8,8C6.894,8,6,7.104,6,6s0.894-2,2-2V8z M24,8V4c1.105,0,2,0.896,2,2S25.105,8,24,8z"></path></g><g><g><path d="M0,4v10h14v2h-2v13c0,1.656,1.344,3,3,3c1.656,0,3-1.344,3-3V16h-2v-4H2V6h2V5V4H0z"></path><path d="M30,0H6C4.895,0,4,2.238,4,5c0,2.762,0.894,5,2,5h24c1.105,0,2-2.238,2-5C32,2.238,31.105,0,30,0z"></path></g></g></svg>