<svg xmlns:dc="http://purl.org/dc/elements/1.1/" xmlns:cc="http://creativecommons.org/ns#" xmlns:rdf="http://www.w3.org/1999/02/22-rdf-syntax-ns#" xmlns:svg="http://www.w3.org/2000/svg" xmlns="http://www.w3.org/2000/svg" xmlns:sodipodi="http://sodipodi.sourceforge.net/DTD/sodipodi-0.dtd" xmlns:inkscape="http://www.inkscape.org/namespaces/inkscape" version="1.1" x="0px" y="0px" viewBox="0 0 100 100"><g transform="translate(0,-952.36218)"><path  d="m 82.147561,954.36199 c -14.22779,14.9482 -23.47223,31.0376 -32.22214,48.85011 l 5.34164,3.8196 c 11.25368,-16.62631 20.99446,-32.68931 26.8805,-52.66971 z m -39.17201,28.9486 c -19.39493,5.193 -30.92232,26.90831 -25.73177,46.26551 4.69918,17.5241 17.18211,22.5972 25.96152,20.2465 11.41324,-3.0559 -4.79993,-22.8374 13.9859,-19.586 3.9844,0.9172 14.48998,9.9457 23.57788,-3.676 7.97054,-15.9292 0.0844,-29.98561 -11.57355,-37.76481 -5.48455,9.3696 -11.49066,18.49771 -16.71411,26.07641 0.5305,2.8097 -0.27312,5.9908 -1.57952,8.2996 -1.99008,3.447 -5.96716,5.7436 -9.67813,7.352 0.4643,2.288 -0.87361,4.8304 -2.44107,6.0021 -1.51715,1.0986 -3.50546,1.6944 -5.68626,1.6944 -4.16658,-0.6061 -7.28535,-4.6456 -7.35194,-8.2709 0.17188,-2.2268 1.60112,-3.5561 3.33135,-4.4801 2.3343,-0.9359 4.56241,-1.2537 6.80628,-0.7179 2.25239,-3.0759 2.1056,-7.3503 3.07288,-10.2238 1.32892,-2.9087 3.15637,-4.5694 5.94473,-4.9683 4.26992,-8.9664 8.54964,-17.59171 13.35409,-25.87541 -5.20502,-1.3746 -10.22427,-1.907 -15.27828,-0.3733 z m 1.63695,4.4223 c 3.75526,1.0061 5.81263,5.624 3.96315,9.9079 -0.88603,2.0519 -2.29341,3.49501 -3.99187,4.16421 -1.69846,0.6692 -3.49422,0.6695 -5.39907,0.603 -2.89363,-0.2158 -5.28171,-1.7094 -5.02574,-4.76721 0.20008,-2.0807 1.21606,-3.8897 1.43593,-4.7098 1.51577,-3.7957 5.42928,-5.7946 9.0176,-5.1981 z m -5.45649,6.1458 c -0.34921,1.5721 -1.24186,3.007 -1.32107,4.5375 1.46436,0.4118 3.68275,0.6157 5.39907,-0.029 0.82929,-0.3262 1.37075,-0.7964 1.98158,-2.2113 1.06473,-2.4659 -0.40329,-4.603 -1.5508,-4.9109 -2.09389,-0.035 -3.46785,0.8756 -4.50878,2.6137 z m 38.28174,14.21571 c -1.64233,4.0223 -5.02866,7.0672 -9.21863,6.519 -2.09391,-0.2991 -4.23404,-1.2473 -5.85857,-2.8718 -1.49397,-1.9166 -1.06084,-4.0194 0.0287,-5.8298 1.85459,-2.7482 4.69287,-5.8892 7.63912,-6.34691 4.69121,-0.1252 8.72099,4.31141 7.40938,8.52951 z m -6.92115,-4.8819 c -2.59238,1.3673 -5.50691,2.9244 -5.54265,5.9159 0.97476,0.9743 2.44444,1.6493 3.76212,1.838 2.60094,0.3228 4.44134,-1.8238 5.22677,-4.0493 0.44631,-2.185 -1.52886,-3.6342 -3.44624,-3.7046 z m -38.5115,1.0335 c 3.75526,1.0067 5.84135,5.5961 3.99187,9.8792 -0.88603,2.0527 -2.32212,3.4951 -4.02058,4.1642 -1.69847,0.6695 -3.46551,0.698 -5.37036,0.6318 -2.89373,-0.2167 -5.28163,-1.7094 -5.02574,-4.7673 0.20008,-2.0803 1.21606,-3.8892 1.43593,-4.7098 1.51893,-3.8142 5.48296,-5.8199 8.98888,-5.1981 z m 16.31211,2.3262 c -0.65707,1.3608 -1.32501,2.6969 -1.98158,4.0781 1.67406,0.4866 3.67406,1.4866 4.59496,2.7569 0.77024,-1.1175 1.51011,-2.2223 2.26876,-3.3313 z m -21.76862,3.8196 c -0.43697,1.6303 -1.24018,3.2658 -1.32105,4.1067 1.1286,1.3228 3.86918,0.9476 5.39908,0.3734 0.82929,-0.3271 1.37075,-0.7682 1.98157,-2.1826 1.06474,-2.4665 -0.40329,-4.6034 -1.5508,-4.9109 -2.00752,-0.075 -3.52136,1.0059 -4.5088,2.6134 z m 14.1295,4.7385 c -1.64394,4.729 0.31163,8.6776 -7.9263,15.5942 -2.10444,1.7668 12.8946,-2.105 16.57056,-8.472 1.55475,-2.6929 2.75972,-7.9743 -0.68924,-9.9653 -3.28405,-1.9328 -6.93236,0.066 -7.95502,2.8431 z m 26.2487,1.9529 c 3.53104,0 6.43294,2.9019 6.43294,6.4329 0,3.5311 -2.9019,6.433 -6.43294,6.433 -3.53105,0 -6.43295,-2.9019 -6.43295,-6.433 0,-3.531 2.9019,-6.4329 6.43295,-6.4329 z m 0,3.676 c -1.54441,0 -2.75698,1.2126 -2.75698,2.7569 0,1.5444 1.21257,2.757 2.75698,2.757 1.5444,0 2.75697,-1.2126 2.75697,-2.757 0,-1.5443 -1.21257,-2.7569 -2.75697,-2.7569 z m -34.11757,7.4668 c -3.38207,0.4423 -4.03611,2.7773 -1.8667,4.997 2.158,2.3325 5.95217,0.6517 6.72013,-1.3211 -2.05388,0.6887 -4.50623,1.5044 -6.28935,0.5452 -0.66818,-2.0568 0.28457,-3.1903 1.43592,-4.2211 z"  stroke="none" marker="none" visibility="visible" display="inline" overflow="visible"></path></g></svg>