<svg xmlns:dc="http://purl.org/dc/elements/1.1/" xmlns:cc="http://creativecommons.org/ns#" xmlns:rdf="http://www.w3.org/1999/02/22-rdf-syntax-ns#" xmlns:svg="http://www.w3.org/2000/svg" xmlns="http://www.w3.org/2000/svg" xmlns:sodipodi="http://sodipodi.sourceforge.net/DTD/sodipodi-0.dtd" xmlns:inkscape="http://www.inkscape.org/namespaces/inkscape" version="1.1" x="0px" y="0px" viewBox="0 0 100 100"><g transform="translate(0,-952.36218)"><g transform="translate(15.006326,953.34456)"><path d="M 65.09055,0.53149606 C 56.622046,9.531496 49.925196,18.992126 44.043306,28.948819 38.976377,26.751968 32.31496,27.177165 27.602362,28.523622 7.6535432,33.944882 -4.03937,56.232283 1.2755905,76.251968 6.059055,94.181102 19.240157,100.02756 28.842519,97.440944 c 3.366142,-0.921259 5.102362,-3.543307 5.562992,-6.165354 1.240158,-3.720472 -1.417322,-9.496063 0.673229,-12.437008 0.673228,-0.744094 2.303149,-1.381889 6.625984,-0.637795 3.401575,1.098425 6.625984,2.976378 9.708661,3.543307 7.582677,1.027559 12.11811,-3.543307 15.271653,-8.149606 C 73.700786,59.492126 68.704723,46.38189 59.669291,37.984252 58.110235,36.531496 56.409448,35.220472 54.673228,34.051181 60.094487,24.200787 64.73622,13.854331 68.137794,2.3031496 68.350393,1.523622 67.925196,0.63779527 67.216535,0.21259842 66.366141,-0.21259842 65.834645,0.10629921 65.09055,0.53149606 z M 61.97244,9.4606299 C 56.338582,25.122047 48.259842,38.622047 39.01181,52.476378 L 36.460629,51.023622 C 43.759842,36.035433 51.342519,22.216535 61.97244,9.4606299 z M 42.129921,32.279527 c -4.322835,7.618111 -8.220473,15.555118 -12.11811,23.811024 -2.76378,0.248031 -5.031496,2.763779 -5.811024,4.854331 -0.92126,2.692913 -0.850394,4.85433 -1.488189,6.944881 -0.283464,0.956693 -0.744094,1.984252 -1.488189,3.118111 -2.19685,-0.602363 -4.85433,-0.1063 -6.661417,0.708661 -4.216535,2.586614 -3.755906,7.051181 -0.708661,10.204724 3.011811,2.834646 7.015747,2.905512 10.204724,0.673229 1.913386,-1.913386 2.692913,-3.543307 2.374016,-5.917323 3.614173,-1.559055 7.51181,-3.826772 9.460629,-7.228346 1.38189,-2.870079 2.090551,-4.677166 1.523622,-8.149607 5.527559,-8.255905 11.196851,-16.688976 15.484252,-24.059055 1.523622,1.027559 2.976378,2.161418 4.322835,3.401575 8.185039,7.582677 12.543307,18.566929 6.307086,31.216535 -4.145669,6.200788 -7.937008,6.874016 -11.551181,6.307087 -3.720472,-0.354331 -5.988189,-2.374016 -9.637795,-3.543307 -4.854331,-0.850394 -8.114173,-0.283465 -9.956693,1.807086 -3.188976,4.393701 -0.81496,9.496063 -1.523622,14.208662 C 30.57874,92.409448 30.11811,93.366141 27.921259,93.93307 20.374015,95.988189 9.1417322,91.842519 4.7480314,75.295275 -0.07086614,57.224409 10.665354,36.850394 28.594488,31.996063 c 4.641732,-0.92126 10.381889,-1.240158 13.535433,0.283464 z m -21.188976,7.440945 c -0.212599,0.814961 -1.204725,2.586614 -1.417323,4.641733 -0.07087,3.11811 2.267716,4.570866 4.925197,4.677165 1.842519,0.07087 3.614173,0.07087 5.279527,-0.602362 1.629921,-0.637796 3.011811,-2.055118 3.897638,-4.074803 1.807086,-4.216536 -0.212599,-8.751969 -3.897638,-9.744095 -3.791338,-0.496063 -7.830709,1.736221 -8.787401,5.102362 z m 29.338582,8.893701 c -2.409449,2.374016 -5.527559,6.944882 -3.188976,9.602362 1.594488,1.594488 3.685039,2.551181 5.704724,2.834646 4.535433,0.248031 7.688976,-2.551181 9.035433,-6.413386 0.602362,-1.913386 0.318897,-4.322835 -1.38189,-6.023622 -3.366142,-3.082677 -6.944882,-3.188976 -10.169291,0 z M 8.6456692,55.948819 c -0.2125984,0.81496 -1.2047244,2.586614 -1.4173228,4.641732 -0.035433,3.153543 2.2677165,4.570866 4.9251966,4.677165 1.84252,0.07087 3.57874,0.03543 5.244095,-0.602362 1.665354,-0.673228 3.047244,-2.090551 3.93307,-4.110236 1.807087,-4.216536 -0.248031,-8.716536 -3.897637,-9.708662 -3.826772,-0.496063 -7.8307089,1.736221 -8.7874018,5.102363 z m 26.2559048,-1.700788 2.090551,1.240158 C 36.496062,56.232283 36,56.976378 35.503937,57.755905 c -0.602363,-0.35433 -1.204725,-0.708661 -1.771654,-1.027559 0.389764,-0.850394 0.779528,-1.629921 1.169291,-2.444882 z m -2.125984,6.094488 c 1.027559,0.92126 1.275591,1.984252 1.275591,2.976378 -0.07087,1.488189 -0.673229,3.259843 -1.275591,4.322835 -1.346457,2.374016 -5.633858,4.96063 -9.318897,6.377953 0.850393,-1.346457 2.19685,-3.437008 2.692913,-5.066929 0.814961,-2.728347 0.779527,-4.854331 1.452756,-6.80315 1.240157,-2.870079 2.940945,-2.834646 5.173228,-1.807087 z m 18.779527,3.118111 c -3.47244,0 -6.307086,2.870078 -6.307086,6.342519 0,3.472441 2.834646,6.307087 6.307086,6.307087 3.437008,0 6.271654,-2.834646 6.271654,-6.307087 0,-3.472441 -2.834646,-6.342519 -6.271654,-6.342519 z m 0,3.614173 c 1.488189,0 2.692914,1.204724 2.692914,2.728346 0,1.523622 -1.204725,2.692914 -2.692914,2.692914 -1.523622,0 -2.692913,-1.169292 -2.692913,-2.692914 0,-1.523622 1.169291,-2.728346 2.692913,-2.728346 z"   fill-opacity="1" fill-rule="nonzero" stroke="none"></path></g></g></svg>