<svg xmlns="http://www.w3.org/2000/svg" xmlns:xlink="http://www.w3.org/1999/xlink" version="1.1" x="0px" y="0px" viewBox="0 0 1024 1024"  xml:space="preserve"><g><g><path d="M425.2,238l-13.4-26.8c14.5-7.3,31.3-12.5,49.9-15.5c11.3-1.8,22.9-2.3,34.2-2.8c19.8-0.8,38.5-1.6,51.5-9.2l15,26    c-19.4,11.2-42.7,12.2-65.2,13.1c-10.9,0.5-21.2,0.9-30.7,2.4C447.1,228.4,433.3,233.9,425.2,238z"></path></g><g><path d="M401.5,958.3l-39.1-4.7c-2.2-0.3-52.3-7.1-68.6-74.2c-10,0.5-26.8,4.5-42.7,22.6l-33.5,38l7.4-50.1    c0-0.2,3.1-21.4,4.5-45.2c0.5-8.7,0.7-16.1,0.6-22.5c-4,5.2-8.4,10.7-13.5,16.2c-31.6,34.4-69.6,52.3-109.9,51.7L73,889.5    l22.9-24.7c0.2-0.2,18.2-19.7,35.9-43c3-4,5.7-7.7,8.2-11.2c-6.5,1.7-13.6,2.9-21.4,3.1l-31.2,1l18.7-25    c0.2-0.3,23.4-31.6,28.4-57.4c2.5-13.3,8.8-26.9,15.5-41.3c9.5-20.6,20.2-43.9,21-69.4c0.8-25.7,4-66.3,6.9-98.2    c-9.8,13.4-19.5,28.5-24.5,41.7l-17.7,46.5l-11-48.6c-0.4-1.8-1-4-1.8-6.7c-8-28.7-26.9-96,63.7-193.8l0.4-0.4    c0.2-0.2,28.8-30,29.2-80.6c1-114.8,85.9-188.9,239.1-208.7c44.1-5.7,78-2.1,100.7,10.7c18.5,10.4,29.9,26.9,33,47.7l-29.7,4.3    c-5.4-37.2-57.5-38.5-100.1-33c-96.5,12.5-211.9,53.7-212.9,179.2c-0.5,61.2-34.2,97.5-37.8,101.2    c-54.9,59.3-64.4,103.4-62.7,133.5c4.6-6.7,9.7-13.8,15.4-21.1c8.2-10.5,20.1-24.4,25.4-29.6l0,0l29.7-29.7l-4.2,41.8    c-0.1,1-9.9,99-11.2,144.5c-1,31.6-13.6,59-23.8,81c-5.9,12.7-11.4,24.7-13.2,34.4c-2.2,11.4-6.8,23.1-12,33.7    c9.7-7.7,14.2-16.3,14.7-17.4l28.7-65l-0.1,71.4c0,18.3-13,44.3-39.8,79.5c-3.5,4.5-6.9,8.9-10.2,13.1    c17.2-6.7,33.4-18.2,48.5-34.5c20.2-21.8,30.7-44.4,30.8-44.6l12.4-26.9l14.4,25.8c7.4,13.3,9.9,37.3,7.9,73.5    c-0.2,4.1-0.5,8.1-0.8,11.9c26.7-13.4,49.8-8.2,51.2-7.9l9.7,2.3l1.6,9.8c3.5,21.1,10.7,34.9,18.4,44c-0.3-8,0.1-16.9,1.2-26.8    c2.4-22,7.5-40.6,7.7-41.4l22.3,4.9c1.4-7.6,3.4-15.8,5.4-24.6c3.1-13,6.2-26.5,8.5-40.8l29.6,4.7c-2.4,15.4-5.9,30-8.9,42.9    c-4.6,19.5-8.9,38-6.7,47.2l13.9,58.2l-39.7-44.7c-0.8-0.9-1.6-1.8-2.4-2.7c-2,19.3-1.3,37.8,5.1,45L401.5,958.3z M377.5,841.8    L377.5,841.8L377.5,841.8z"></path></g><g><path d="M361.9,655.1c-11.5-28.7-15.4-50-13.8-73.8c1.8-25.1,10.1-53.2,27.7-93.9c31-71.6,10.6-150.3-0.4-192.6    c-3-11.4-5.3-20.4-6.2-27.3c-1.3-9.3-4.6-42.4,5.6-79.4c10.8-39,33.4-69,65.4-86.7c37.9-21,69.1-20.6,88.7-16.6    c23,4.7,43.4,17.4,54.4,33.9l-24.9,16.7c-5.2-7.8-17.3-17.5-35.5-21.2c-14.6-3-38.3-3.1-68.1,13.4c-25.1,13.9-42.3,36.9-51,68.4    c-6.9,25-7,51.2-4.8,67.3c0.7,5.2,2.9,13.8,5.5,23.8c11.9,45.8,33.9,131-1.1,212c-31.7,73.3-31.2,100.4-13.6,144.6L361.9,655.1z"></path></g><g><path d="M562.5,209.7l-15-26c6.2-3.6,20.1-26.2,13.3-43.8l-0.2-0.5c-0.5-1.2-1.2-2.5-2.1-3.8l9.9-6.6l-5.4-15    c0.4-0.1,1.9-0.7,4.4-1.3l10.2-2.5l5.9,8.7c1.9,2.8,3.4,5.7,4.7,8.6c0.2,0.5,0.4,1,0.6,1.6C601.2,161.2,581.2,198.9,562.5,209.7z"></path></g><g><path d="M647,433.1h-30c0-31-3.6-64.5-9.9-91.9c-7.1-31-17.3-52.9-28.7-61.6c-45.4-34.9-40.7-74.7-38.2-86.1l29.3,6.5    c-1.6,7-4.2,31.7,27.2,55.8C636.4,286.3,647,381.6,647,433.1z"></path></g><g><path d="M709.8,334.9c-6.9-40.6-18.1-79.5-33.2-115.6c-15.6-37.2-35.7-61.6-59.6-72.6c-18.6-8.6-34.8-6.4-40.9-5.1l-6.3-29.3    c11.2-2.4,33.9-4.7,59.7,7.2c31,14.3,56.2,44,74.7,88.3c16,38.2,27.9,79.4,35.1,122.2L709.8,334.9z"></path></g><g><path d="M633.1,769.5c-3.4,0-6.8-1-9.7-3.1L512,685.8l-116.1-84c-7.5-5.4-9.2-15.9-3.8-23.4l24.9-34.5    c21.3-29.5,50.6-51.7,84.7-64.3c5.1-1.9,10.3-3.6,15.6-5l32.7-8.9c31.5-8.5,60-25.4,82.6-48.9c1.6-1.7,3.2-3.4,4.6-5l257-288.5    c5.9-6.5,15.6-7.5,22.7-2.3c7.1,5.1,9.1,14.7,4.7,22.3l0,0L728.2,477.6c-17.5,30.3-25.8,64.8-23.9,99.8l1.8,33.8    c2,37.4-7.3,74-27,105.9c-2.3,3.7-4.8,7.5-7.4,11.1l-24.9,34.4C643.5,767.1,638.3,769.5,633.1,769.5z M424.2,585.2l105.4,76.2    l100.6,72.8l17.2-23.7c2.2-3,4.3-6.1,6.2-9.3c16.5-26.6,24.2-57.2,22.6-88.5l-1.8-33.8c-2.2-40.8,7.4-81,27.9-116.4l129.7-224    L659.7,431.8c-1.7,1.9-3.6,3.9-5.5,5.9c-26.3,27.4-59.7,47.1-96.4,57l-32.7,8.8c-4.4,1.2-8.8,2.6-13.1,4.2    c-28.5,10.5-53,29.1-70.8,53.7L424.2,585.2z"></path></g><g><rect x="315.6" y="634.4" transform="matrix(0.5862 -0.8102 0.8102 0.5862 -369.2867 575.8184)" width="126.9" height="30"></rect></g><g><rect x="356.5" y="664" transform="matrix(0.5861 -0.8102 0.8102 0.5861 -376.3246 621.2238)" width="126.9" height="30"></rect></g><g><rect x="438.2" y="723.1" transform="matrix(0.5861 -0.8102 0.8102 0.5861 -390.4075 711.9151)" width="126.9" height="30"></rect></g><g><rect x="397.3" y="693.5" transform="matrix(0.5862 -0.8102 0.8102 0.5862 -383.3672 666.5109)" width="126.9" height="30"></rect></g><g><rect x="479.1" y="752.7" transform="matrix(0.5861 -0.8102 0.8102 0.5861 -397.4507 757.2757)" width="126.9" height="30"></rect></g><g><rect x="519.9" y="782.2" transform="matrix(0.5861 -0.8102 0.8102 0.5861 -404.4984 802.61)" width="126.9" height="30"></rect></g></g></svg>