<svg xmlns="http://www.w3.org/2000/svg" xmlns:xlink="http://www.w3.org/1999/xlink" version="1.1" x="0px" y="0px" viewBox="0 0 96 96" enable-background="new 0 0 96 96" xml:space="preserve"><path d="M64.778,91.108c14.597,0,26.472-11.876,26.472-26.473c0-11.662-7.583-21.579-18.075-25.099  c0.838-2.576,1.297-5.321,1.297-8.173C74.472,16.768,62.597,4.892,48,4.892S21.528,16.768,21.528,31.364  c0,2.852,0.459,5.597,1.297,8.173C12.333,43.057,4.75,52.974,4.75,64.636c0,14.597,11.875,26.473,26.472,26.473  c6.362,0,12.208-2.258,16.778-6.013C52.57,88.851,58.416,91.108,64.778,91.108z M39.806,64.636c0-2.7,0.437-5.298,1.232-7.735  c2.22,0.605,4.553,0.936,6.962,0.936s4.742-0.33,6.962-0.936c0.796,2.438,1.232,5.035,1.232,7.735c0,7.316-3.163,13.909-8.194,18.48  C42.969,78.545,39.806,71.952,39.806,64.636z M54.45,55.486c-2.059,0.552-4.22,0.85-6.45,0.85s-4.392-0.298-6.45-0.85  c1.419-3.589,3.64-6.776,6.45-9.331C50.811,48.71,53.031,51.897,54.45,55.486z M49.148,45.18c4.283-3.446,9.718-5.516,15.63-5.516  c2.23,0,4.392,0.298,6.45,0.85c-2.701,6.834-8.332,12.197-15.338,14.537C54.413,51.261,52.09,47.892,49.148,45.18z M40.109,55.051  c-7.006-2.34-12.636-7.703-15.338-14.537c2.059-0.552,4.22-0.85,6.45-0.85c5.912,0,11.347,2.069,15.63,5.516  C43.91,47.892,41.587,51.261,40.109,55.051z M89.75,64.636c0,13.77-11.202,24.973-24.972,24.973c-5.912,0-11.347-2.069-15.63-5.517  c5.25-4.84,8.546-11.77,8.546-19.456c0-2.852-0.459-5.597-1.297-8.173c7.45-2.5,13.429-8.226,16.271-15.514  C82.582,44.26,89.75,53.623,89.75,64.636z M23.028,31.364C23.028,17.595,34.23,6.392,48,6.392s24.972,11.203,24.972,24.973  c0,2.699-0.437,5.298-1.232,7.735c-2.22-0.605-4.552-0.936-6.961-0.936c-6.362,0-12.208,2.258-16.778,6.013  c-4.57-3.755-10.416-6.013-16.778-6.013c-2.409,0-4.741,0.33-6.961,0.936C23.465,36.662,23.028,34.063,23.028,31.364z   M31.222,89.608c-13.77,0-24.972-11.203-24.972-24.973c0-11.013,7.168-20.376,17.082-23.687c2.842,7.288,8.82,13.014,16.271,15.514  c-0.838,2.576-1.297,5.321-1.297,8.173c0,7.687,3.296,14.616,8.546,19.456C42.568,87.539,37.134,89.608,31.222,89.608z"></path></svg>