<svg xmlns="http://www.w3.org/2000/svg" xmlns:xlink="http://www.w3.org/1999/xlink" version="1.1" x="0px" y="0px" viewBox="0 0 70 70"  xml:space="preserve"><g><g><path d="M52.6699219,25.0253906H24.1010742c-0.5522461,0-1-0.4477539-1-1s0.4477539-1,1-1h28.5688477    c1.2773438,0,2.3164062-1.2128906,2.3164062-2.7041016V6.7070312c0-1.4907227-1.0390625-2.7036133-2.3164062-2.7036133H15.0644531    c-1.2773438,0-2.3164062,1.2128906-2.3164062,2.7036133v13.6142578c0,1.4912109,1.0390625,2.7041016,2.3164062,2.7041016    h1.5092773c0.5522461,0,1,0.4477539,1,1s-0.4477539,1-1,1h-1.5092773c-2.3798828,0-4.3164062-2.1103516-4.3164062-4.7041016    V6.7070312c0-2.59375,1.9365234-4.7036133,4.3164062-4.7036133h37.6054688c2.3798828,0,4.3164062,2.1098633,4.3164062,4.7036133    v13.6142578C56.9863281,22.9150391,55.0498047,25.0253906,52.6699219,25.0253906z"></path></g><g><path d="M11.7431641,14.5131836H6.8032227c-0.5522461,0-1-0.4477539-1-1s0.4477539-1,1-1h4.9399414c0.5522461,0,1,0.4477539,1,1    S12.2954102,14.5131836,11.7431641,14.5131836z"></path></g><g><path d="M34.6962891,45.4204102c-0.5522461,0-1-0.4477539-1-1v-4.2275391c0-3.1503906,2.5629883-5.7133789,5.7133789-5.7133789    h19.0737305c2.0473633,0,3.7133789-1.6655273,3.7133789-3.7128906V18.2260742    c0-2.0473633-1.6660156-3.7128906-3.7133789-3.7128906h-2.4951172c-0.5522461,0-1-0.4477539-1-1s0.4477539-1,1-1h2.4951172    c3.1503906,0,5.7133789,2.5629883,5.7133789,5.7128906v12.5405273c0,3.1499023-2.5629883,5.7128906-5.7133789,5.7128906H39.409668    c-2.0473633,0-3.7133789,1.6660156-3.7133789,3.7133789v4.2275391    C35.6962891,44.9726562,35.2485352,45.4204102,34.6962891,45.4204102z"></path></g><g><g><path d="M36.6870117,68h-3.9814453c-2.1933594,0-3.9780273-1.784668-3.9780273-3.9780273V49.3891602     c0-3.2910156,2.6777344-5.96875,5.96875-5.96875s5.96875,2.6777344,5.96875,5.96875v14.6328125     C40.6650391,66.215332,38.8803711,68,36.6870117,68z M34.6962891,45.4204102c-2.1884766,0-3.96875,1.7802734-3.96875,3.96875     v14.6328125C30.7275391,65.112793,31.6147461,66,32.7055664,66h3.9814453c1.0908203,0,1.9780273-0.887207,1.9780273-1.9780273     V49.3891602C38.6650391,47.2006836,36.8847656,45.4204102,34.6962891,45.4204102z"></path></g><g><path d="M39.6650391,51.2919922h-9.9375c-0.5522461,0-1-0.4477539-1-1s0.4477539-1,1-1h9.9375c0.5522461,0,1,0.4477539,1,1     S40.2172852,51.2919922,39.6650391,51.2919922z"></path></g></g><g><path d="M20.3393555,29.2724609c-2.6279297,0-4.765625-2.1376953-4.765625-4.7651367V3c0-0.5522461,0.4477539-1,1-1    s1,0.4477539,1,1v21.5073242c0,1.5249023,1.2407227,2.7651367,2.765625,2.7651367s2.7651367-1.2402344,2.7651367-2.7651367    V13.4677734c0-2.3535156,1.9150391-4.2685547,4.2685547-4.2685547s4.2685547,1.9150391,4.2685547,4.2685547    c0,1.0688477,0.8691406,1.9379883,1.9375,1.9379883h0.4140625c1.2963867,0,2.3510742-1.0546875,2.3510742-2.3515625v-1.3652344    c0-2.2851562,1.859375-4.1445312,4.1445312-4.1445312s4.1445312,1.859375,4.1445312,4.1445312v1.4067383    c0,1.2739258,1.0361328,2.3100586,2.3100586,2.3100586s2.3100586-1.0361328,2.3100586-2.3100586V3c0-0.5522461,0.4477539-1,1-1    s1,0.4477539,1,1v10.0957031c0,2.3764648-1.9335938,4.3100586-4.3100586,4.3100586s-4.3100586-1.9335938-4.3100586-4.3100586    v-1.4067383c0-1.1826172-0.9619141-2.1445312-2.1445312-2.1445312s-2.1445312,0.9619141-2.1445312,2.1445312v1.3652344    c0,2.3994141-1.9516602,4.3515625-4.3510742,4.3515625h-0.4140625c-2.1713867,0-3.9375-1.7666016-3.9375-3.9379883    c0-1.2509766-1.0175781-2.2685547-2.2685547-2.2685547s-2.2685547,1.0175781-2.2685547,2.2685547v11.0395508    C25.1044922,27.1347656,22.9667969,29.2724609,20.3393555,29.2724609z"></path></g><g><path d="M13.7470703,48.5498047c-2.4057617,0-4.3632812-1.987793-4.3632812-4.4311523    c0-2.078125,2.9296875-6.8422852,3.5166016-7.7758789c0.3662109-0.5820312,1.3271484-0.5820312,1.6933594,0    c0.5869141,0.9335938,3.5166016,5.6977539,3.5166016,7.7758789C18.1103516,46.5620117,16.152832,48.5498047,13.7470703,48.5498047    z M13.7470703,38.8144531c-1.1625977,2.0126953-2.3632812,4.4189453-2.3632812,5.3041992    c0,1.340332,1.0600586,2.4311523,2.3632812,2.4311523s2.3632812-1.0908203,2.3632812-2.4311523    C16.1103516,43.2324219,14.909668,40.8266602,13.7470703,38.8144531z"></path></g><g><path d="M25.3251953,41.7231445c-2.4057617,0-4.3632812-1.987793-4.3632812-4.4311523    c0-2.078125,2.9296875-6.8422852,3.5166016-7.7758789c0.3662109-0.5820312,1.3271484-0.5820312,1.6933594,0    c0.5874023,0.9335938,3.5170898,5.6977539,3.5170898,7.7758789    C29.6889648,39.7353516,27.7314453,41.7231445,25.3251953,41.7231445z M25.3251953,31.9882812    c-1.1625977,2.0126953-2.3632812,4.418457-2.3632812,5.3037109c0,1.340332,1.0600586,2.4311523,2.3632812,2.4311523    s2.3637695-1.0908203,2.3637695-2.4311523C27.6889648,36.4067383,26.4882812,34.0009766,25.3251953,31.9882812z"></path></g></g></svg>