<svg xmlns="http://www.w3.org/2000/svg" xmlns:xlink="http://www.w3.org/1999/xlink" version="1.1" x="0px" y="0px" viewBox="0 0 32 32" enable-background="new 0 0 32 32" xml:space="preserve"><path d="M25.541,5.772V2.208H3.292v8.083h22.249v-3.52c1.211,0.113,2.167,1.174,2.167,2.478v1.375c0,1.398-1.164,2.784-2.541,3.025l-7.882,1.381c-1.857,0.326-3.369,2.125-3.369,4.011v0.385c-0.742,0.366-1.292,1.507-1.292,2.865v4.5c0,1.65,0.807,3,1.792,3s1.792-1.35,1.792-3v-4.5c0-1.358-0.55-2.499-1.292-2.865v-0.385c0-1.398,1.164-2.784,2.541-3.025l7.882-1.381c1.857-0.326,3.369-2.125,3.369-4.01V9.25C28.708,7.394,27.304,5.886,25.541,5.772z"></path></svg>