<svg xmlns="http://www.w3.org/2000/svg" xmlns:xlink="http://www.w3.org/1999/xlink" version="1.1" x="0px" y="0px" viewBox="0 0 96 96" enable-background="new 0 0 96 96" xml:space="preserve"><path d="M38.306,64.636c0-2.852,0.459-5.597,1.297-8.173c-7.45-2.5-13.429-8.226-16.271-15.514  C13.418,44.26,6.25,53.623,6.25,64.636c0,13.77,11.202,24.973,24.972,24.973c5.912,0,11.347-2.069,15.63-5.517  C41.602,79.252,38.306,72.322,38.306,64.636z"></path><path d="M48,83.116c5.031-4.571,8.194-11.164,8.194-18.48c0-2.7-0.437-5.298-1.232-7.735c-2.22,0.605-4.553,0.936-6.962,0.936  s-4.742-0.33-6.962-0.936c-0.796,2.438-1.232,5.035-1.232,7.735C39.806,71.952,42.969,78.545,48,83.116z"></path><path d="M31.222,38.164c6.362,0,12.208,2.258,16.778,6.013c4.57-3.755,10.416-6.013,16.778-6.013c2.409,0,4.741,0.33,6.961,0.936  c0.796-2.438,1.232-5.036,1.232-7.735C72.972,17.595,61.77,6.392,48,6.392S23.028,17.595,23.028,31.364  c0,2.699,0.437,5.298,1.232,7.735C26.48,38.494,28.813,38.164,31.222,38.164z"></path><path d="M89.75,64.636c0-11.013-7.168-20.376-17.082-23.687c-2.842,7.288-8.82,13.014-16.271,15.514  c0.838,2.576,1.297,5.321,1.297,8.173c0,7.687-3.296,14.616-8.546,19.456c4.283,3.447,9.718,5.517,15.63,5.517  C78.548,89.608,89.75,78.405,89.75,64.636z"></path><path d="M71.229,40.514c-2.059-0.552-4.22-0.85-6.45-0.85c-5.912,0-11.347,2.069-15.63,5.516c2.941,2.712,5.265,6.081,6.742,9.871  C62.896,52.711,68.527,47.348,71.229,40.514z"></path><path d="M48,46.155c-2.811,2.555-5.031,5.742-6.45,9.331c2.059,0.552,4.22,0.85,6.45,0.85s4.392-0.298,6.45-0.85  C53.031,51.897,50.811,48.71,48,46.155z"></path><path d="M24.771,40.514c2.702,6.834,8.332,12.197,15.338,14.537c1.478-3.79,3.801-7.159,6.742-9.871  c-4.283-3.446-9.718-5.516-15.63-5.516C28.991,39.664,26.83,39.962,24.771,40.514z"></path></svg>