<svg xmlns="http://www.w3.org/2000/svg" viewBox="0 0 128 128" x="0px" y="0px"><path d="M54.38,5.55,51.77,15.6H4.21L1.98,5.55A3.344,3.344,0,0,1,5.22,1.5H51.13A3.348,3.348,0,0,1,54.38,5.55Z"></path><path d="M40.56,111.09v9.95a5.467,5.467,0,0,1-5.46,5.46H20.17a5.467,5.467,0,0,1-5.46-5.46v-9.95Z"></path><path d="M40.56,111.09v9.95a5.467,5.467,0,0,1-5.46,5.46H20.17a5.467,5.467,0,0,1-5.46-5.46v-9.95Z"></path><path d="M82.53,74.48V85.05a3.967,3.967,0,0,1-3.94,3.94c-1.931.23-4-2.11-3.94-3.94V81.59a1,1,0,0,0-2,0V90.3c.359,2.142-2.079,5.605-5.53,5.59a5.647,5.647,0,0,1-5.66-5.59V74.48Z"></path><path d="M126.1,75.48v8.4a1,1,0,0,1-1,1H84.53V74.48H125.1A1,1,0,0,1,126.1,75.48Z"></path><path d="M126.1,75.48v8.4a1,1,0,0,1-1,1H84.53V74.48H125.1A1,1,0,0,1,126.1,75.48Z"></path><path d="M126.1,75.48v8.4a1,1,0,0,1-1,1H84.53V74.48H125.1A1,1,0,0,1,126.1,75.48Z"></path><path d="M4.49,17.6l2.2,82.76H49.24l2.2-82.76ZM27.97,54.55A10.755,10.755,0,1,1,38.73,43.79,10.77,10.77,0,0,1,27.97,54.55Z"></path><path d="M4.49,17.6l2.2,82.76H49.24l2.2-82.76ZM27.97,54.55A10.755,10.755,0,1,1,38.73,43.79,10.77,10.77,0,0,1,27.97,54.55Z"></path><polygon points="59.46 74.48 59.46 84.88 51.65 84.88 51.93 74.48 59.46 74.48"></polygon><path d="M123.98,43.79,104.42,72.48H79.3l43.28-30.07a1,1,0,0,1,1.4,1.38Z"></path><path d="M123.3,86.88v9.79a22.929,22.929,0,0,1-22.9,22.9H62.5a55.615,55.615,0,0,1-19.94-3.73v-4.75h.22l8.53-8.73-.07-2,.36-13.48h7.86V90.3a7.638,7.638,0,0,0,7.59,7.59c5.14.64,8.3-5.25,7.6-8.67,2.89,3.32,8.46,1.56,9.58-2.34Z"></path><circle cx="27.965" cy="43.795" r="8.765"></circle><polygon points="48.52 102.36 41.94 109.09 13.43 109.09 7.23 102.36 48.52 102.36"></polygon></svg>