<svg xmlns="http://www.w3.org/2000/svg" xmlns:xlink="http://www.w3.org/1999/xlink" version="1.1" x="0px" y="0px" viewBox="0 0 64 64"  xml:space="preserve"><g><g><path d="M44.2399902,24l-5.2099609,5.2099609l-1.8100586,1.8099976l-0.8099976-7.6699829l1.8200073-1.8200073l0.3600464-0.3599854    L40,19.7600098l-1.4099731-1.4100342l-1.4200439,1.4100342l-0.5999756,0.6099854    c-0.0499878,0.0299683-0.0900269,0.0700073-0.1300049,0.1199951l-1.7200317,1.7199707L33.1799927,23.75l-7.4400024,7.4400024    c-0.5700073,0.5700073-0.8800049,1.3200073-0.8800049,2.1199951v1.1799927c0,0.2600098-0.1099854,0.5200195-0.289978,0.7000122    l-0.8300171,0.8299561c-0.5700073,0.5700073-0.8800049,1.3200073-0.8800049,2.1200562    c0,0.7999878,0.3099976,1.5599976,0.8800049,2.1199951c0.5599976,0.5699463,1.3200073,0.8800049,2.1199951,0.8800049    s1.5499878-0.3100586,2.1199951-0.8800049l0.8300171-0.8200073C28.9899902,39.25,29.25,39.1400146,29.5100098,39.1400146    h1.1799927c0.7999878,0,1.5499878-0.3100586,2.1199951-0.8800049L40.25,30.8200073l1.539978-1.5400391l2.4500122-2.4500122    l1.4199829-1.4099731L44.2399902,24z"></path></g><g><path d="M50.6099854,21.8800049c-1.3954582-1.3980598-4.9353485-4.9291039-6.3800049-6.3699951V15.5    c-0.4647026-0.447648-1.6609268-1.6733246-2.1099777-2.1099396c-2.2675209-2.3290329-6.3286247,0.4924707-4.8298874,3.4201164    c1.5708466,2.1903343,7.1779213,7.2338047,9.069725,9.3100243C49.0572433,28.9146652,53.4104156,24.5938301,50.6099854,21.8800049    z M49.1900024,24.7099609c-0.9928589,1.0182323-2.1728668-0.8860016-2.8300934-1.4200382    c0.0000763,0.0000553-7.069931-7.069952-7.069931-7.069952c-0.929203-0.8965588,0.5214996-2.3574667,1.4201088-1.4098969    C40.9454918,15.6198635,51.0728836,23.70895,49.1900024,24.7099609z"></path></g><g><path d="M56.3599854,7.8399658C55.2399902,6.6699829,53.7399902,6,52.0499878,6.0499878    c-1.75,0.0100098-3.4299927,0.75-4.6199951,2.0200195c-0.2799683,0.3099976-0.5800171,0.5899658-0.8599854,0.8599854    c-0.7399902,0.7199707-1.4500122,1.3999634-1.8699951,2.289978c-0.210022,0.4400024-0.4299927,0.8500366-0.6799927,1.2399902    c-0.3600464,0.6000366-0.7600098,1.1400146-1.2000122,1.6300049L44.2299805,15.5    c0.4500122-0.4800415,0.8600464-1.0100098,1.2399902-1.5800171c0,0,0,0,0-0.0100098    c0.3800049-0.5700073,0.7200317-1.1799927,1.0300293-1.8300171c0.2700195-0.5599976,0.8200073-1.0899658,1.460022-1.7099609    c0.3099976-0.2999878,0.6199951-0.6000366,0.9299927-0.9299927c0.8200073-0.8800049,1.9699707-1.3800049,3.1699829-1.3900146    h0.0300293c1.0999756,0,2.0999756,0.4099731,2.8299561,1.1699829c0.7600098,0.7900391,1.0700073,1.6600342,1.0700073,2.5100098    c0,1.3800049-0.8099976,2.7399902-1.8499756,3.7800293c-0.1700439,0.1799927-0.3400269,0.3599854-0.5100098,0.5299683    c-0.5900269,0.6099854-1.1099854,1.1500244-1.6500244,1.4299927c-0.5700073,0.2900391-1.2199707,0.6400146-1.8800049,1.0700073    c-0.539978,0.3599854-1.0899658,0.7600098-1.5999756,1.2299805l1.4099731,1.4100342    c0.5200195-0.4500122,1.0800171-0.8500366,1.6400146-1.1900024c0.4700317-0.289978,0.9299927-0.539978,1.3500366-0.75    c0.8299561-0.4299927,1.4799805-1.0999756,2.1699829-1.8099976c0.1599731-0.1699829,0.3200073-0.3300171,0.4899902-0.5    C58.4699707,14.0199585,58.789978,10.3699951,56.3599854,7.8399658z"></path></g><g><path d="M51.1300011,35c0,2.6267166-0.4618263,5.1379776-1.3085442,7.4760513    c-0.0096321,0.0385246-0.0192604,0.0866203-0.0385246,0.1250877c-0.0095711,0.0385246-0.0288353,0.0769882-0.0480957,0.1154556    c-2.2322502,6.0040131-7.0142288,10.7859917-13.0181847,13.0182419c-0.0385246,0.0192604-0.0769882,0.0384636-0.1154556,0.0480957    c-0.0385246,0.0192642-0.0866203,0.0288925-0.1250877,0.0385246c-0.0192604,0.0192032-0.0481529,0.0192032-0.0673561,0.0192032    C34.0898781,56.6777458,31.5978813,57.1300011,29,57.1300011c-3.9737835,0-7.6973915-1.0584259-10.9302807-2.8961525    c-0.0096321,0-0.0096321-0.0096321-0.0096321-0.0096321c-0.0577278-0.0288353-0.1250877-0.0673599-0.1828156-0.0961952    c-0.0096302,0-0.0192623,0-0.0288925-0.0192604c-5.5036068-3.223259-9.5062246-8.7653923-10.6320105-15.2696953    C6.985456,37.5882492,6.8699999,36.3085442,6.8699999,35c0-5.3400536,1.9050856-10.237545,5.0610447-14.0669785    c0,0,0.0096312-0.0096302,0.0096312-0.0192623c0.076931-0.0866203,0.14429-0.1731834,0.2309122-0.2598057    c0.0096312-0.0096302,0.0192623-0.0192032,0.0288343-0.0288334C16.2511959,15.881609,22.2840443,12.8699999,29,12.8699999    c2.2033577,0,4.3586769,0.3174753,6.4273148,0.9525433c-0.3271065,0.5580769-0.5388145,1.1738234-0.6158066,1.8281536    c-1.5683479-0.4810867-3.1944237-0.7601547-4.8493347-0.8275146C29.64464,14.8039789,29.3271656,14.7943478,29,14.7943478    s-0.64464,0.0096312-0.9621735,0.0288343c-5.4747715,0.2598057-10.3818359,2.7037077-13.8649006,6.4850435    c-0.4426212,0.4715137-0.856349,0.9621735-1.2412424,1.4721546C10.3338022,26.1768227,8.7943478,30.4104118,8.7943478,35    c0,0.865921,0.0577278,1.7126389,0.1635532,2.5497246c0.0769901,0.6446991,0.1924467,1.2700768,0.3367958,1.8955154    c1.1738243,5.2438583,4.3971424,9.7179337,8.7846527,12.5370941c0.5388145,0.355999,1.0968342,0.6831665,1.6741734,0.9718056    C22.5245876,54.3973999,25.6708565,55.2056503,29,55.2056503c2.0879002,0,4.1085014-0.3175316,6.0039558-0.9140739    c0.6061745-0.1924477,1.2123489-0.4040985,1.7992592-0.6639023c4.878231-2.0398064,8.7846527-5.946228,10.8244591-10.8244591    c0.2598038-0.5869102,0.4714546-1.1930847,0.6639023-1.7992592C48.8881187,39.1084442,49.2056503,37.0879021,49.2056503,35    c0-1.9917068-0.279007-3.935318-0.8563461-5.8115673c0.6542702-0.0769329,1.2700768-0.288641,1.8281517-0.6157475    C50.8124657,30.6413231,51.1300011,32.7965851,51.1300011,35z"></path></g><g><path d="M43.4609985,35c0,1.3737488-0.1962585,2.7062683-0.5577583,3.9664116    c-0.1859207,0.6714287-0.4235382,1.3221779-0.7023849,1.9419098c-1.4564629,3.2330704-4.0594635,5.836071-7.2925339,7.292469    c-0.6197319,0.2789116-1.2704811,0.5164642-1.9418488,0.7023849C31.7062664,49.26474,30.3738117,49.4609985,29,49.4609985    c-2.2621155,0-4.4002857-0.5164642-6.3111782-1.446125c-0.6197948-0.3098679-1.229187-0.6610909-1.7972851-1.0432701    c-2.8922501-1.9728622-5.0406952-4.9580421-5.9187222-8.4493446c-0.1652403-0.6610909-0.2891874-1.3427963-0.3614998-2.0348396    C14.5596809,36.0019112,14.5390024,35.5061264,14.5390024,35c0-3.160759,1.0225887-6.0839634,2.7579012-8.470026    c0.3925171-0.5577583,0.8470097-1.0949001,1.3221779-1.5906868c2.4067421-2.4790535,5.6914463-4.1007576,9.34799-4.3589897    C28.3079548,20.5493412,28.648777,20.5390034,29,20.5390034s0.6920452,0.0103378,1.0329285,0.0412941    c0.9296608,0.0619717,1.8283043,0.2065983,2.7166061,0.4441509l-1.7456512,1.7456512    C30.3427944,22.6564922,29.6817055,22.6048584,29,22.6048584c-6.8379803,0-12.3951416,5.5571613-12.3951416,12.3951416    c0,0.7333374,0.0619736,1.4564018,0.1859207,2.1587868c0.6507492,3.6566048,2.9025269,6.7760048,6.0116501,8.5733528    c1.8283043,1.0638847,3.9457951,1.663002,6.1975708,1.663002c1.4874191,0,2.9232044-0.2685738,4.2453194-0.7437439    c3.4293327-1.2601395,6.1459389-3.9767456,7.4061432-7.4060783c0.4751053-1.3221779,0.743679-2.7579002,0.743679-4.2453194    c0-0.6817665-0.0516357-1.3427925-0.1652412-2.0038834l1.7456512-1.7456512    C43.2957573,32.4589729,43.4609985,33.7088394,43.4609985,35z"></path></g><g><path d="M21.1500244,46.5899658l-3.5,6.0599976c-4.5599976-2.9299927-7.9100342-7.5799561-9.1300049-13.0299683    l6.8999634-1.210022C16.2700195,41.789978,18.3499756,44.6799927,21.1500244,46.5899658z"></path><path d="M15,35c0,0.4899902,0.0200195,0.9699707,0.0700073,1.4400024l-6.9000244,1.2099609    C8.0599976,36.7799683,8,35.8999634,8,35c0-4.7700195,1.5999756-9.1700439,4.2999878-12.7000122l5.3699951,4.5    C15.9899902,29.1099854,15,31.9400024,15,35z"></path><path d="M28,14.0299683v7.0100098c-3.539978,0.25-6.7199707,1.8200073-9.0499878,4.2200317l-5.3599854-4.4900513    C17.210022,16.8399658,22.3099976,14.2999878,28,14.0299683z"></path><path d="M35.2399902,55.0499878C33.2700195,55.6699829,31.1699829,56,29,56c-3.460022,0-6.7299805-0.8400269-9.6099854-2.3400269    l3.5-6.0599976C24.7399902,48.5,26.8099976,49,29,49c1.3300171,0,2.6199951-0.1900024,3.8400269-0.5400391L35.2399902,55.0499878z    "></path><path d="M48.3599854,43.1099854c-2.1199951,5.0700073-6.1799927,9.1300049-11.25,11.25l-2.3900146-6.5800171    c3.1300049-1.4099731,5.6500244-3.9299927,7.0600586-7.0599976L48.3599854,43.1099854z"></path><path d="M50,35c0,2.1699829-0.3300171,4.2699585-0.9500122,6.2399902l-6.5899658-2.4000244    C42.8099976,37.6199951,43,36.3299561,43,35c0-1.25-0.1599731-2.460022-0.4699707-3.6300049l3.1999512-3.2000122    C46.539978,28.7099609,47.4899902,29,48.4899902,29c0.210022,0,0.4199829-0.0100098,0.6199951-0.0400391    C49.710022,30.9099731,50,32.9299927,50,35z"></path><path d="M35.8300171,18.2699585l-3.2000122,3.2000122C31.7700195,21.2399902,30.9000244,21.0999756,30,21.039978v-7.0100098    c1.7199707,0.0700073,3.4099731,0.3600464,5.039978,0.8600464C35.0100098,15.0899658,35,15.2999878,35,15.5100098    C35,16.5100098,35.289978,17.4599609,35.8300171,18.2699585z"></path></g><g><path d="M11.5100098,20.0899658c-0.0900269,0.0900269-0.1600342,0.1799927-0.2399902,0.2700195    c0.0299683-0.0499878,0.0599976-0.0999756,0.0999756-0.1400146C11.4099731,20.1699829,11.460022,20.1199951,11.5100098,20.0899658    z"></path></g><g><path d="M17.6300049,54.9799805C17.5800171,54.9699707,17.539978,54.9500122,17.5,54.9299927    c-0.0200195-0.0100098-0.039978-0.0300293-0.0599976-0.0499878C17.5,54.9099731,17.5700073,54.9500122,17.6300049,54.9799805z"></path></g><g><path d="M36.9000244,56.5999756c-0.0100098,0.0100098-0.0200195,0.0200195-0.0300293,0.0200195    c-0.0299683,0.0100098-0.0700073,0.0200195-0.0999756,0.0200195    C36.8099976,56.6300049,36.8599854,56.6199951,36.9000244,56.5999756z"></path></g><g><path d="M50.6400146,42.7699585c0,0.0300293-0.0100098,0.0700073-0.0200195,0.1000366    c0,0.0100098-0.0100098,0.0200195-0.0200195,0.0299683C50.6199951,42.8599854,50.6300049,42.8099976,50.6400146,42.7699585z"></path></g></g></svg>