<svg xmlns="http://www.w3.org/2000/svg" xmlns:xlink="http://www.w3.org/1999/xlink" version="1.1" x="0px" y="0px" viewBox="0 0 20 20" xml:space="preserve"><g transform="translate(-150 -1220)"><g xmlns="http://www.w3.org/2000/svg" xmlns:xlink="http://www.w3.org/1999/xlink"><path d="M166.987,1227.25c0.003-0.083,0.013-0.165,0.013-0.25c0-3.866-3.134-7-7-7c-3.866,0-7,3.134-7,7    c0,0.085,0.01,0.167,0.013,0.25c-1.819,1.265-3.013,3.366-3.013,5.75c0,3.866,3.134,7,7,7c1.075,0,2.09-0.25,3-0.683    c0.91,0.433,1.925,0.683,3,0.683c3.866,0,7-3.134,7-7C170,1230.616,168.807,1228.515,166.987,1227.25z M160,1233    c-1.07,0-2.073-0.285-2.943-0.777c0.245-1.886,1.366-3.495,2.943-4.411c1.577,0.916,2.698,2.525,2.943,4.411    C162.073,1232.715,161.07,1233,160,1233z M162.983,1233.325c-0.112,2.078-1.282,3.875-2.983,4.863    c-1.701-0.988-2.871-2.785-2.983-4.863c0.905,0.429,1.915,0.675,2.983,0.675C161.068,1234,162.078,1233.754,162.983,1233.325z     M156.143,1231.589c-1.121-0.943-1.888-2.288-2.086-3.812c0.87-0.492,1.873-0.777,2.943-0.777c0.672,0,1.315,0.116,1.919,0.32    C157.518,1228.329,156.501,1229.837,156.143,1231.589z M161.081,1227.32c0.604-0.204,1.247-0.32,1.919-0.32    c1.07,0,2.073,0.285,2.943,0.777c-0.198,1.523-0.965,2.868-2.086,3.812C163.499,1229.837,162.482,1228.329,161.081,1227.32z     M160,1221c3.199,0,5.813,2.518,5.983,5.675c-0.905-0.429-1.915-0.675-2.983-0.675c-1.075,0-2.09,0.25-3,0.683    c-0.91-0.433-1.925-0.683-3-0.683c-1.068,0-2.078,0.246-2.983,0.675C154.188,1223.518,156.801,1221,160,1221z M157,1239    c-3.309,0-6-2.691-6-6c0-1.84,0.834-3.487,2.143-4.589c0.366,1.792,1.42,3.331,2.87,4.339c-0.003,0.083-0.013,0.165-0.013,0.25    c0,2.342,1.154,4.409,2.919,5.68C158.315,1238.884,157.672,1239,157,1239z M163,1239c-0.672,0-1.315-0.116-1.919-0.32    c1.765-1.271,2.919-3.338,2.919-5.68c0-0.085-0.01-0.167-0.013-0.25c1.45-1.008,2.504-2.547,2.87-4.339    c1.309,1.102,2.143,2.749,2.143,4.589C169,1236.309,166.309,1239,163,1239z"></path></g></g></svg>