<svg xmlns="http://www.w3.org/2000/svg" xmlns:xlink="http://www.w3.org/1999/xlink" version="1.1" x="0px" y="0px" viewBox="0 0 512 512"  xml:space="preserve"><g><g><g><path d="M134.137,406.748H82.801c-13.541,0-24.556-11.067-24.556-24.671V82.878c0-13.604,11.016-24.671,24.556-24.671h51.336     c13.577,0,24.623,11.067,24.623,24.671v299.199C158.759,395.681,147.713,406.748,134.137,406.748z M82.801,64.698     c-9.961,0-18.066,8.156-18.066,18.181v299.199c0,10.025,8.104,18.181,18.066,18.181h51.336c9.998,0,18.132-8.155,18.132-18.181     V82.878c0-10.025-8.134-18.181-18.132-18.181H82.801z"></path></g><g><path d="M141.269,422.414c-4.267,0-8.474-1.12-12.167-3.238l-22.241-12.864c-1.271-0.734-1.89-2.231-1.509-3.65     c0.38-1.417,1.666-2.403,3.134-2.403h25.651c9.998,0,18.132-8.111,18.132-18.082V228.008c0-0.569,0.15-1.128,0.435-1.622     l72.549-125.72c4.374-7.58,12.565-12.289,21.378-12.289c4.288,0,8.524,1.128,12.249,3.261l44.442,25.717     c5.659,3.24,9.727,8.523,11.442,14.869c1.723,6.374,0.86,13.026-2.428,18.729L162.698,410.141     C158.292,417.715,150.083,422.414,141.269,422.414z M120.578,406.748l11.764,6.804c2.701,1.55,5.792,2.372,8.927,2.372     c6.512,0,12.572-3.464,15.814-9.037l149.63-259.175c2.421-4.197,3.054-9.096,1.785-13.793c-1.262-4.669-4.25-8.553-8.414-10.938     l-44.443-25.717c-2.732-1.565-5.853-2.396-9.011-2.396c-6.501,0-12.538,3.465-15.756,9.042l-72.114,124.967v153.298     c0,13.55-11.046,24.572-24.623,24.572H120.578z"></path></g><g><path d="M309.458,131.064h-96.162c-1.792,0-3.245-1.453-3.245-3.245c0-1.792,1.453-3.245,3.245-3.245h96.162     c1.792,0,3.245,1.453,3.245,3.245C312.703,129.611,311.25,131.064,309.458,131.064z"></path></g><g><path d="M300.545,168.168H191.92c-1.792,0-3.245-1.453-3.245-3.245c0-1.792,1.453-3.245,3.245-3.245h108.625     c1.793,0,3.245,1.453,3.245,3.245C303.79,166.715,302.338,168.168,300.545,168.168z"></path></g><g><path d="M279.17,205.093H170.543c-1.792,0-3.245-1.453-3.245-3.245c0-1.792,1.453-3.245,3.245-3.245H279.17     c1.792,0,3.245,1.453,3.245,3.245C282.415,203.64,280.962,205.093,279.17,205.093z"></path></g><g><path d="M257.792,242.197H155.514c-1.792,0-3.245-1.453-3.245-3.245c0-1.792,1.453-3.245,3.245-3.245h102.278     c1.792,0,3.245,1.453,3.245,3.245C261.037,240.745,259.584,242.197,257.792,242.197z"></path></g><g><path d="M236.417,279.212h-80.903c-1.792,0-3.245-1.453-3.245-3.245s1.453-3.245,3.245-3.245h80.903     c1.792,0,3.245,1.453,3.245,3.245S238.208,279.212,236.417,279.212z"></path></g><g><path d="M215.04,316.226h-59.526c-1.792,0-3.245-1.453-3.245-3.245s1.453-3.245,3.245-3.245h59.526     c1.792,0,3.245,1.453,3.245,3.245S216.832,316.226,215.04,316.226z"></path></g><g><path d="M193.663,353.239h-38.149c-1.792,0-3.245-1.453-3.245-3.245s1.453-3.245,3.245-3.245h38.149     c1.792,0,3.245,1.453,3.245,3.245S195.455,353.239,193.663,353.239z"></path></g><g><path d="M139.844,439.617c-8.772,0-16.949-4.688-21.338-12.234l-12.833-22.26c-0.733-1.272-0.521-2.878,0.519-3.916     c1.041-1.038,2.646-1.248,3.918-0.513l22.232,12.857c2.701,1.55,5.792,2.372,8.927,2.372c6.511,0,12.571-3.463,15.813-9.037     l77.082-133.547c0.285-0.494,0.695-0.903,1.189-1.188l125.662-72.474c3.757-2.177,8.033-3.33,12.363-3.33     c8.779,0,16.942,4.699,21.305,12.265l25.652,44.487c3.285,5.65,4.151,12.287,2.431,18.676     c-1.719,6.386-5.802,11.69-11.495,14.936L152.104,436.307C148.396,438.47,144.152,439.617,139.844,439.617z M117.347,412.377     l6.776,11.754c3.226,5.545,9.252,8.996,15.721,8.996c3.161,0,6.273-0.842,9.004-2.434l259.194-149.611     c4.193-2.39,7.192-6.291,8.457-10.993c1.268-4.705,0.635-9.584-1.78-13.736l-25.658-44.498     c-3.206-5.562-9.216-9.017-15.682-9.017c-3.188,0-6.34,0.85-9.114,2.458L239.35,277.339l-76.652,132.802     c-4.406,7.574-12.615,12.273-21.428,12.273c0,0,0,0-0.001,0c-4.267,0-8.475-1.12-12.167-3.238L117.347,412.377z"></path></g><g><path d="M420.351,268.541c-0.552,0-1.109-0.142-1.621-0.437l-83.303-48.13c-1.552-0.896-2.083-2.882-1.187-4.433     c0.896-1.553,2.883-2.082,4.435-1.187l83.303,48.131c1.551,0.896,2.083,2.881,1.186,4.434     C422.563,267.959,421.472,268.541,420.351,268.541z"></path></g><g><path d="M394.073,296.165c-0.552,0-1.109-0.141-1.621-0.436l-94.024-54.33c-1.552-0.896-2.083-2.881-1.186-4.433     c0.896-1.553,2.882-2.083,4.434-1.187l94.024,54.329c1.552,0.897,2.083,2.881,1.186,4.434     C396.285,295.583,395.194,296.165,394.073,296.165z"></path></g><g><path d="M357.108,317.501c-0.552,0-1.109-0.141-1.62-0.436l-94.057-54.337c-1.553-0.896-2.084-2.882-1.188-4.434     c0.897-1.553,2.884-2.083,4.433-1.187l94.057,54.337c1.553,0.896,2.084,2.882,1.188,4.434     C359.319,316.919,358.229,317.501,357.108,317.501z"></path></g><g><path d="M320.079,338.927c-0.551,0-1.108-0.141-1.62-0.436l-88.599-51.147c-1.552-0.896-2.083-2.881-1.188-4.433     c0.896-1.552,2.881-2.084,4.433-1.188l88.598,51.147c1.553,0.896,2.085,2.881,1.188,4.433     C322.291,338.344,321.199,338.927,320.079,338.927z"></path></g><g><path d="M283.047,360.254c-0.552,0-1.109-0.142-1.621-0.437l-70.048-40.476c-1.552-0.896-2.083-2.881-1.187-4.434     c0.897-1.551,2.882-2.083,4.434-1.186l70.048,40.476c1.552,0.896,2.083,2.881,1.187,4.434     C285.258,359.671,284.167,360.254,283.047,360.254z"></path></g><g><path d="M246.049,381.591c-0.55,0-1.107-0.141-1.617-0.435l-51.566-29.723c-1.553-0.895-2.086-2.879-1.191-4.432     s2.879-2.088,4.432-1.191l51.566,29.723c1.553,0.895,2.086,2.879,1.191,4.432C248.263,381.008,247.171,381.591,246.049,381.591z"></path></g><g><path d="M209.019,403.017c-0.552,0-1.112-0.141-1.624-0.438l-33.052-19.149c-1.551-0.898-2.08-2.884-1.181-4.435     s2.883-2.081,4.435-1.182l33.052,19.149c1.551,0.898,2.08,2.884,1.181,4.435C211.228,402.436,210.138,403.017,209.019,403.017z"></path></g><g><path d="M429.134,453.792H129.862c-13.577,0-24.622-11.067-24.622-24.671v-25.618c0-1.469,0.987-2.755,2.406-3.135     c1.418-0.376,2.917,0.241,3.65,1.515l12.826,22.248c3.226,5.545,9.252,8.996,15.722,8.996c3.16,0,6.273-0.842,9.003-2.434     l133.534-77.038c0.493-0.285,1.053-0.435,1.622-0.435h145.13c13.576,0,24.621,11.023,24.621,24.574v51.326     C453.755,442.725,442.71,453.792,429.134,453.792z M111.73,415.63v13.491c0,10.025,8.134,18.181,18.132,18.181h299.271     c9.998,0,18.131-8.155,18.131-18.181v-51.326c0-9.972-8.133-18.084-18.131-18.084H284.872l-132.768,76.596     c-3.708,2.163-7.952,3.311-12.26,3.311c-8.772,0-16.949-4.688-21.338-12.234L111.73,415.63z"></path></g><g><path d="M447.686,442.94c-1.121,0-2.212-0.582-2.813-1.623l-48.082-83.229c-0.897-1.552-0.366-3.537,1.187-4.433     c1.55-0.895,3.537-0.366,4.433,1.187l48.082,83.229c0.897,1.552,0.366,3.537-1.187,4.433     C448.795,442.8,448.237,442.94,447.686,442.94z"></path></g><g><path d="M411.146,453.793c-1.121,0-2.213-0.582-2.813-1.624l-54.296-94.081c-0.896-1.553-0.363-3.537,1.189-4.433     c1.551-0.897,3.536-0.365,4.433,1.188l54.296,94.081c0.896,1.553,0.363,3.537-1.189,4.433     C412.255,453.653,411.697,453.793,411.146,453.793z"></path></g><g><path d="M368.427,453.793c-1.121,0-2.212-0.582-2.813-1.623l-54.33-94.081c-0.896-1.553-0.364-3.537,1.187-4.433     c1.551-0.896,3.537-0.366,4.434,1.187l54.33,94.081c0.896,1.553,0.364,3.537-1.188,4.434     C369.536,453.652,368.978,453.793,368.427,453.793z"></path></g><g><path d="M325.674,453.793c-1.122,0-2.213-0.582-2.813-1.624l-51.14-88.613c-0.896-1.553-0.364-3.537,1.188-4.434     c1.552-0.896,3.537-0.364,4.433,1.188l51.14,88.614c0.896,1.553,0.364,3.537-1.188,4.433     C326.782,453.653,326.225,453.793,325.674,453.793z"></path></g><g><path d="M282.921,453.793c-1.121,0-2.212-0.582-2.813-1.623l-40.485-70.106c-0.896-1.552-0.365-3.536,1.188-4.433     s3.536-0.364,4.433,1.187l40.483,70.106c0.897,1.553,0.365,3.537-1.187,4.434C284.03,453.652,283.472,453.793,282.921,453.793z"></path></g><g><path d="M240.168,453.793c-1.091,0-2.157-0.551-2.77-1.549l-31.143-50.776c-0.937-1.528-0.458-3.526,1.069-4.464     c1.528-0.937,3.526-0.458,4.463,1.069l31.144,50.776c0.937,1.528,0.458,3.526-1.07,4.464     C241.332,453.638,240.746,453.793,240.168,453.793z"></path></g><g><path d="M197.416,453.793c-1.123,0-2.214-0.583-2.815-1.625l-19.074-33.093c-0.895-1.553-0.361-3.537,1.191-4.433     c1.552-0.895,3.537-0.361,4.432,1.191l19.074,33.093c0.895,1.553,0.362,3.537-1.191,4.432     C198.522,453.653,197.965,453.793,197.416,453.793z"></path></g><g><path d="M154.662,453.793c-1.122,0-2.213-0.582-2.814-1.624l-8.683-15.046c-0.896-1.552-0.363-3.536,1.188-4.433     c1.553-0.897,3.537-0.364,4.433,1.188l8.683,15.046c0.896,1.553,0.363,3.537-1.189,4.433     C155.77,453.653,155.212,453.793,154.662,453.793z"></path></g><g><path d="M155.514,352.237H61.49c-1.792,0-3.245-1.453-3.245-3.245V115.97c0-1.792,1.453-3.245,3.245-3.245h94.024     c1.792,0,3.246,1.453,3.246,3.245v233.022C158.759,350.784,157.306,352.237,155.514,352.237z M64.735,345.747h87.534V119.215     H64.735V345.747z"></path></g><g><path d="M108.485,387.788c-6.396,0-11.598-5.217-11.598-11.63c0-6.414,5.203-11.632,11.598-11.632     c6.414,0,11.632,5.218,11.632,11.632C120.117,382.571,114.899,387.788,108.485,387.788z M108.485,371.017     c-2.816,0-5.108,2.307-5.108,5.142c0,2.834,2.292,5.14,5.108,5.14c2.835,0,5.142-2.306,5.142-5.14     C113.627,373.323,111.32,371.017,108.485,371.017z"></path></g><g><path d="M108.485,100.339c-6.396,0-11.598-5.218-11.598-11.632c0-6.414,5.203-11.631,11.598-11.631     c6.414,0,11.632,5.218,11.632,11.631C120.117,95.121,114.899,100.339,108.485,100.339z M108.485,83.566     c-2.769,0-5.108,2.354-5.108,5.141c0,2.835,2.292,5.142,5.108,5.142c2.835,0,5.142-2.307,5.142-5.142     C113.627,85.92,111.272,83.566,108.485,83.566z"></path></g></g></g></svg>