<svg xmlns="http://www.w3.org/2000/svg" xmlns:xlink="http://www.w3.org/1999/xlink" version="1.1" x="0px" y="0px" viewBox="0 0 52 52"  xml:space="preserve"><g><g><path d="M36.0049934,44.7434082c-0.2558594,0-0.5117188-0.0976563-0.7070313-0.2929688    c-1.1010742-1.1010742-1.1010742-2.8925781,0-3.9936523c0.4780273-0.4780273,1.097168-0.7636719,1.7631836-0.8178711    c0.0532227-0.6430664,0.3251953-1.2705078,0.8154297-1.7617188c0.4912109-0.4902344,1.1191406-0.762207,1.762207-0.815918    c0.0541992-0.6660156,0.3398438-1.2851563,0.8178711-1.7631836c1.1000977-1.1010742,2.8925781-1.1020508,3.9936523,0    c0.390625,0.390625,0.390625,1.0234375,0,1.4140625s-1.0234375,0.390625-1.4140625,0    c-0.3217773-0.3217773-0.8447266-0.3208008-1.1655273,0c-0.1557617,0.1557617-0.2412109,0.362793-0.2412109,0.5825195    c0,0.2202148,0.0854492,0.4267578,0.2412109,0.5820313c0.1953125,0.1953125,0.2929688,0.4511719,0.2929688,0.7070313    s-0.0976563,0.512207-0.2924805,0.7075195c-0.390625,0.390625-1.0239258,0.3901367-1.4145508,0.0004883    c-0.3208008-0.3208008-0.84375-0.3217773-1.1655273,0c-0.3208008,0.3208008-0.3208008,0.84375,0.0004883,1.1650391    c0.1948242,0.1953125,0.2924805,0.4516602,0.2924805,0.7075195s-0.0976563,0.5117188-0.2929688,0.7070313    c-0.390625,0.3896484-1.0239258,0.3901367-1.4145508-0.0004883c-0.3100586-0.3110352-0.8525391-0.3110352-1.1645508,0    c-0.3212891,0.3212891-0.3212891,0.8442383,0,1.1655273c0.390625,0.390625,0.390625,1.0234375,0,1.4140625    C36.5167122,44.645752,36.2608528,44.7434082,36.0049934,44.7434082z"></path></g><g><path d="M6.6783347,15.416748c-0.2558594,0-0.5117188-0.0976563-0.7070313-0.2929688l-2.7636721-2.7636719    c-1.6088866-1.6083984-1.6088866-4.2265625,0-5.8359375l3.3164065-3.3164063c1.608398-1.609375,4.2275386-1.609375,5.835937,0    l2.7636719,2.7636719c0.390625,0.390625,0.390625,1.0234375,0,1.4140625L7.385366,15.1237793    C7.1900535,15.3190918,6.9341941,15.416748,6.6783347,15.416748z M9.4420061,3.9997559    c-0.5444336,0-1.0893555,0.2075195-1.5039058,0.6220703L4.6216941,7.9382324    c-0.8291018,0.8295898-0.8291018,2.1787109,0,3.0078125l2.0566406,2.0566406l6.3242183-6.3242188l-2.0566406-2.0566406    C10.5313616,4.2072754,9.9864397,3.9997559,9.4420061,3.9997559z"></path></g><g><path d="M10.5474749,19.2858887c-0.2558594,0-0.5117188-0.0976563-0.7070313-0.2929688l-3.8691401-3.8691406    c-0.390625-0.390625-0.390625-1.0234375,0-1.4140625l7.7382808-7.7382813c0.390625-0.390625,1.0234375-0.390625,1.4140625,0    l3.8691416,3.8691406c0.390625,0.390625,0.390625,1.0234375,0,1.4140625l-7.7382822,7.7382813    C11.0591936,19.1882324,10.8033342,19.2858887,10.5474749,19.2858887z M8.0923967,14.416748l2.4550781,2.4550781    l6.3242197-6.3242188l-2.4550791-2.4550781L8.0923967,14.416748z"></path></g><g><path d="M41.8135872,47.2355957c-0.105957,0-0.2124023-0.0166016-0.3164063-0.0512695l-4.9746094-1.6582031    c-0.1469727-0.0493164-0.2807617-0.1318359-0.390625-0.2416992L9.8404436,18.9929199    c-0.390625-0.390625-0.390625-1.0234375,0-1.4140625l7.7382822-7.7382813c0.390625-0.390625,1.0234375-0.390625,1.4140625,0    l26.291502,26.2915039c0.1098633,0.1098633,0.1923828,0.2436523,0.2416992,0.390625l1.6582031,4.9746094    c0.1196289,0.359375,0.0263672,0.7558594-0.2416992,1.0234375l-4.421875,4.421875    C42.3301888,47.1330566,42.0743294,47.2355957,41.8135872,47.2355957z M37.3790169,43.7033691l4.1645508,1.3881836    l3.5478516-3.5478516l-1.3881836-4.1645508L18.2857571,11.9616699l-6.3242197,6.3242188L37.3790169,43.7033691z"></path></g><g><path d="M48.9991341,49.9992676c-0.1206055,0-0.2421875-0.0219727-0.3588867-0.0668945l-7.1855469-2.7636719    c-0.315918-0.1210938-0.5488281-0.3945313-0.6191406-0.7255859s0.0317383-0.675293,0.2709961-0.9145508l4.421875-4.421875    c0.2387695-0.2392578,0.5825195-0.3413086,0.9145508-0.2709961c0.3310547,0.0703125,0.6044922,0.3032227,0.7255859,0.6191406    l2.7636719,7.1855469c0.1420898,0.3686523,0.0532227,0.7866211-0.2260742,1.065918    C49.5152473,49.8972168,49.259388,49.9992676,48.9991341,49.9992676z M43.6089973,45.8547363l3.6489258,1.4033203    l-1.4033203-3.6489258L43.6089973,45.8547363z"></path></g></g></svg>