<svg xmlns="http://www.w3.org/2000/svg" xmlns:xlink="http://www.w3.org/1999/xlink" version="1.1" x="0px" y="0px" viewBox="0 0 70 70"  xml:space="preserve"><g><path d="M51.0823631,38.4776726c1.4848366,0,2.6926155-0.951088,2.6926155-2.1198692v-18.651144   C48.4800377,18.8963203,41.619133,19.4657955,35,19.4657955s-13.4800377-0.5694752-18.7749786-1.7591362v18.9415951   c0,1.0087128,1.0552769,1.8294182,2.3521118,1.8294182c1.296833,0,2.3521099-0.8207054,2.3521099-1.8294182v-7.6139488   c0-2.7927322,2.5721302-5.064518,5.7333069-5.064518c3.1617584,0,5.7338886,2.2717857,5.7338886,5.064518v7.2262955   c0,1.2223282,1.2589989,2.2170715,2.806118,2.2170715c1.5477028,0,2.8067017-0.9947433,2.8067017-2.2170715v-3.4848022   c0-2.5372086,2.3282471-4.6011982,5.1902428-4.6011982s5.1902428,2.0639896,5.1902428,4.6011982v3.5820045   C48.3897438,37.5265846,49.5975227,38.4776726,51.0823631,38.4776726z"></path><ellipse cx="35" cy="11.8483543" rx="25.776598" ry="5.2333159"></ellipse><path d="M63.6645699,17.0694466H62.657238v6.8951015h1.0073318c0.3154755,0,0.6148033-0.0600967,0.9043007-0.1450787   c-0.0463409,6.5853004-0.4459305,12.617569-3.7921257,17.5599976v3.9815216   c5.2475777-6.4098091,6.1541328-14.982048,6.1804771-24.4062805C66.9752655,20.8098469,67,20.6668797,67,20.5169983   C67,18.615984,65.5034485,17.0694466,63.6645699,17.0694466z"></path><path d="M5.5487747,23.879858c0.2251854,0.0526772,0.457355,0.0846901,0.697237,0.0846901h0.9803376v-6.8951015H6.2460117   C4.4563909,17.0694466,3,18.615984,3,20.5169983c0,0.367281,0.0688288,0.7146263,0.1694527,1.0468369   c0.0353603,9.3135681,0.8474088,17.4414749,6.0506029,23.7971535V41.379467   C5.8342032,36.3630409,5.5626717,30.5076485,5.5487747,23.879858z"></path><path d="M37.674572,56.8405533h-5.3523445c-9.0954418,0-17.3087673-4.4225769-23.1021729-11.4795647v12.790802   c0,1.7761612,9.1073713,5.2331696,25.7843094,5.2331696s25.7723808-3.4570084,25.7723808-5.2331696v-12.790802   C54.9833374,52.4179764,46.7819443,56.8405533,37.674572,56.8405533z"></path><path d="M32.3222275,54.4564285h5.3523445c9.3696632,0,17.7259598-5.1258545,23.1021729-13.0769615V15.1779652   c-1.18013,0.7390728-2.7536621,1.382761-4.6132774,1.9192028v19.2637634c0,2.4794388-2.2768059,4.5059586-5.0781937,4.5059586   c-2.8013191,0-5.0781975-2.0265198-5.0781975-4.5059586v-3.5881157c0-1.215929-1.2635841-2.2172203-2.8132515-2.2172203   c-1.5377312,0-2.8013153,1.0012913-2.8013153,2.2172203v3.492733c0,2.5271645-2.3245354,4.6013412-5.1855125,4.6013412   c-2.8609085,0-5.1973743-2.0741768-5.1973743-4.6013412v-7.2358265c0-1.4781456-1.5020103-2.670208-3.3496914-2.670208   c-1.847683,0-3.3496933,1.1920624-3.3496933,2.670208v7.6172924c0,2.3245354-2.1218319,4.2198753-4.7324505,4.2198753   s-4.7325249-1.89534-4.7325249-4.2198753V17.097168c-1.8715458-0.5364418-3.4331446-1.18013-4.6252069-1.9192028V41.379467   C14.5962677,49.330574,22.9526348,54.4564285,32.3222275,54.4564285z"></path></g></svg>