<svg xmlns="http://www.w3.org/2000/svg" xmlns:xlink="http://www.w3.org/1999/xlink" version="1.1" x="0px" y="0px" viewBox="0 0 107.77 99.3"  xml:space="preserve"><path d="M72.93,49.34c-0.54,8.2-2.53,15.73-8.07,21.95c-2.12,2.37-4.64,4.2-7.74,5.1c-5.62,1.63-11.35-0.47-15.48-5.65  c-3.73-4.68-5.49-10.14-6.26-15.99c-0.14-1.05-0.22-2.1-0.35-3.34c-0.81,3.74-1.14,7.36-1.09,10.98c0.06,4.04,0.32,8.11,1.93,11.91  c1.13,2.67,2.31,5.31,4.29,7.5c0.27,0.3,0.42,0.62,0.2,0.99c-0.21,0.35-0.53,0.51-0.94,0.36c-4.82-1.75-8.8,0.35-12.67,2.8  c-1.43,0.91-1.61,0.93-2.21-0.71c-1.57-4.31-2.32-8.81-2.62-13.36c-0.71-10.62-0.05-21.15,2.4-31.53  c1.88-7.97,5.34-15.11,11.53-20.64c4.91-4.39,10.52-7.21,17.35-6.98c6.52,0.22,12.74,1.59,18.43,4.85  c4.86,2.79,7.55,7.44,9.89,12.28c2.34,4.83,3.12,10.08,3.73,15.34c0.82,7.05,1.01,14.13,0.75,21.22c-0.2,5.65-0.6,11.3-1.1,16.93  c-0.15,1.64-0.39,1.74-1.89,1.05c-4.52-2.06-9.27-2.55-14.17-1.99c-0.52,0.06-1.12,0.45-1.53-0.14c-0.42-0.59,0.12-1.02,0.41-1.47  c5.52-8.44,7.17-17.7,5.89-27.59c-0.14-1.05-0.31-2.09-0.47-3.14C73.1,49.88,73.02,49.66,72.93,49.34z M55.37,20.61  c-1.62,2.4-3.74,3.91-6.11,4.9c-2.11,0.88-3.65,2.25-4.87,4.08c-4.36,6.56-8.43,13.16-7.89,21.58c0.4,6.33,1.68,12.32,5.38,17.56  c2.54,3.6,5.76,6.35,10.43,6.74c5.37,0.44,9.28-2.2,12.43-6.17c4.84-6.1,6.55-13.27,6.82-20.88c0.11-3.08-0.39-6.01-1.7-8.85  c-1.14-2.47-2.36-4.89-3.6-7.3c-0.89-1.73-1.94-3.19-3.86-3.9c-0.63-0.23-1.17-0.73-1.72-1.14C58.42,25.52,56.51,23.51,55.37,20.61z   M43.65,28.25c-0.91-0.01-1.39,0.37-1.91,0.63c-5.77,2.93-8.99,7.94-10.87,13.85c-4.06,12.74-3.73,25.54-0.15,38.34  c0.25,0.88,0.67,0.95,1.4,0.71c1.45-0.48,2.94-0.76,4.48-0.64c0.31,0.03,0.7,0.24,0.92-0.02c0.31-0.37-0.13-0.67-0.29-0.96  c-1.62-2.9-3.19-5.83-3.78-9.14c-2.14-12-0.18-23.42,5.09-34.32C39.93,33.79,41.59,31.04,43.65,28.25z M69.47,80.93  c1.89-0.2,3.67-0.27,5.45,0.02c1.08,0.18,1.53-0.25,1.7-1.37c1.59-10.09,2.05-20.22,1.26-30.4c-0.33-4.3-1.26-8.47-3.62-12.18  c-1.74-2.73-4.06-4.79-7.27-6.32C76.16,47.17,79.17,63.71,69.47,80.93z"></path></svg>