<svg xmlns="http://www.w3.org/2000/svg" xmlns:xlink="http://www.w3.org/1999/xlink" viewBox="0 0 60 30" version="1.1" x="0px" y="0px"><title>Color</title><desc>Created with Sketch.</desc><g stroke="none" stroke-width="1"  fill-rule="evenodd"><g transform="translate(-10.000000, -25.000000)"><g transform="translate(10.000000, 25.000000)"><path d="M7.63732194,27.5 C8.88093267,16.2501239 18.4186159,7.5 30,7.5 C41.5813841,7.5 51.1190673,16.2501239 52.3626781,27.5 L57.3878925,27.5 C56.1248205,13.48375 44.3451064,2.5 30,2.5 C15.6548936,2.5 3.87517948,13.48375 2.61210754,27.5 L7.63732194,27.5 Z M50,30 C50,18.954305 41.045695,10 30,10 C18.954305,10 10,18.954305 10,30 L0,30 C0,13.4314575 13.4314575,0 30,0 C46.5685425,0 60,13.4314575 60,30 L50,30 Z"  fill-rule="nonzero"></path><path d="M44.0423462,27.7733832 C42.5883574,21.2862032 36.8024983,16.5972222 30.0653219,16.5972222 C23.3281455,16.5972222 17.5422864,21.2862032 16.0882976,27.7733832 L15.8694059,28.75 L9.32068469,28.75 L9.45705411,27.3764997 C10.5026788,16.8450636 19.3902616,8.75 30.0493752,8.75 C40.7084889,8.75 49.5960717,16.8450636 50.6416964,27.3764997 L50.7780658,28.75 L44.2612379,28.75 L44.0423462,27.7733832 Z" stroke="#000000" stroke-width="2.5"></path></g></g></g></svg>