<svg xmlns="http://www.w3.org/2000/svg" xmlns:xlink="http://www.w3.org/1999/xlink" version="1.1" x="0px" y="0px" viewBox="0 0 90 90" enable-background="new 0 0 90 90" xml:space="preserve"><path d="M69.6,35c0.4-1.7,0.6-3.6,0.6-5.4C70.2,15.6,58.9,4.3,45,4.3c-13.9,0-25.2,11.3-25.2,25.2c0,1.9,0.2,3.7,0.6,5.4  C10.5,38.4,3.4,47.8,3.4,58.8C3.4,72.7,14.7,84,28.7,84c6.2,0,11.9-2.3,16.3-6c4.4,3.8,10.1,6,16.3,6c13.9,0,25.2-11.3,25.2-25.2  C86.6,47.8,79.5,38.4,69.6,35z M25.4,29.5C25.4,18.8,34.2,10,45,10c10.8,0,19.6,8.8,19.6,19.6c0,1.4-0.2,2.8-0.5,4.2  c-0.9-0.1-1.8-0.2-2.8-0.2c-6.2,0-11.9,2.3-16.3,6c-4.4-3.8-10.1-6-16.3-6c-0.9,0-1.9,0.1-2.8,0.2C25.6,32.4,25.4,31,25.4,29.5z   M48.2,58.8c0,4-1.2,7.7-3.2,10.7c-2-3.1-3.2-6.8-3.2-10.7c0-1.4,0.2-2.8,0.5-4.2c0.9,0.1,1.8,0.2,2.8,0.2c0.9,0,1.9-0.1,2.8-0.2  C48.1,56,48.2,57.4,48.2,58.8z M45,49.1c-0.2,0-0.4,0-0.6,0c0.2-0.4,0.4-0.7,0.6-1c0.2,0.3,0.4,0.7,0.6,1  C45.4,49.1,45.2,49.1,45,49.1z M38.5,48c-4.5-1.6-8.2-4.7-10.5-8.7c0.2,0,0.4,0,0.6,0c4.7,0,9.1,1.7,12.5,4.5  C40.1,45,39.3,46.5,38.5,48z M48.9,43.7c3.4-2.8,7.7-4.5,12.5-4.5c0.2,0,0.4,0,0.6,0c-2.3,4-6,7.2-10.5,8.7  C50.7,46.5,49.9,45,48.9,43.7z M9.1,58.8c0-8.5,5.5-15.8,13.1-18.4c2.9,6.1,8.1,10.8,14.5,13c-0.4,1.7-0.6,3.6-0.6,5.4  c0,5.6,1.9,10.9,5,15.1c-3.4,2.8-7.7,4.5-12.5,4.5C17.9,78.4,9.1,69.6,9.1,58.8z M61.3,78.4c-4.7,0-9.1-1.7-12.5-4.5  c3.1-4.2,5-9.4,5-15.1c0-1.9-0.2-3.7-0.6-5.4c6.4-2.2,11.6-7,14.5-13c7.6,2.7,13.1,9.9,13.1,18.4C80.9,69.6,72.1,78.4,61.3,78.4z"></path></svg>