<svg xmlns="http://www.w3.org/2000/svg" xmlns:xlink="http://www.w3.org/1999/xlink" version="1.1" x="0px" y="0px" viewBox="0 0 60 60"  xml:space="preserve"><path d="M44.85,5H10.31C8.63,5,7.27,6.37,7.27,8.04v4.6h17.55c1.66,0,3,1.35,3,3v3.04h17.03c1.67,0,3.03-1.36,3.03-3.04v-2.8h2.07  c0.44,0,0.79,0.35,0.79,0.79v11.26c0,0.38-0.26,0.71-0.63,0.79l-21.64,5.06c-1.28,0.29-2.16,1.41-2.16,2.72v2.49h-2.7  c-0.56,0-1,0.45-1,1V50.3c0,2.59,2.11,4.7,4.7,4.7c2.59,0,4.7-2.11,4.7-4.7V36.95c0-0.55-0.45-1-1-1h-2.7v-2.49  c0-0.37,0.25-0.69,0.61-0.77l21.65-5.06c1.28-0.3,2.17-1.42,2.17-2.74V13.63c0-1.54-1.25-2.79-2.79-2.79h-2.07v-2.8  C47.88,6.37,46.52,5,44.85,5z"></path><path d="M22.06,26.51c2.07,0,3.76-1.69,3.76-3.76v-7.11c0-0.55-0.45-1-1-1H8.26c-0.55,0-1,0.45-1,1V27.3c0,2.07,1.69,3.76,3.76,3.76  c2.07,0,3.76-1.69,3.76-3.76v-6.86c0-0.97,0.79-1.76,1.76-1.76s1.76,0.79,1.76,1.76v2.31C18.3,24.82,19.99,26.51,22.06,26.51z"></path></svg>