<svg xmlns="http://www.w3.org/2000/svg" xmlns:xlink="http://www.w3.org/1999/xlink" version="1.1" x="0px" y="0px" viewBox="0 0 50 50"  xml:space="preserve"><g><path d="M35.5,31.4c0,0.1,0,0.2,0,0.3C35.5,31.6,35.5,31.5,35.5,31.4z"></path></g><g><path d="M24.6,3.3c2.7,3.7,7,9.9,10.2,16.4c2.3,4.7,3.7,8.7,4,12.1l0,0.1l0,0.2c0,0.5,0.1,0.9,0.1,1.4c0,7.9-6.5,14.4-14.4,14.4   c-7.4,0-13.6-5.6-14.3-13c0-0.5-0.1-1-0.1-1.4c0-1.1,0.2-2.3,0.5-3.5l0,0l0,0c0.6-2.9,1.9-6.4,3.8-10.2   C17.6,13.1,21.9,6.9,24.6,3.3 M24.6,0c-2.3,3-8,10.6-12,18.7c-1.8,3.6-3.3,7.3-4,10.7c-0.3,1.3-0.5,2.6-0.5,4c0,0.6,0,1.1,0.1,1.6   C9,43.4,16,49.9,24.5,49.9c9.1,0,16.4-7.4,16.4-16.4c0-0.5,0-1-0.1-1.6c0-0.1,0-0.2,0-0.3c-0.4-3.9-2.1-8.4-4.2-12.7   C32.6,10.7,27,3.1,24.6,0L24.6,0z"></path></g><g><path d="M15.8,31.4l-2-0.3c1.8-11.6,9.6-21.6,9.9-22l1.6,1.2C25.2,10.4,17.5,20.4,15.8,31.4z"></path></g></svg>