<svg xmlns="http://www.w3.org/2000/svg" xmlns:xlink="http://www.w3.org/1999/xlink" version="1.1" x="0px" y="0px" viewBox="0 0 130 130"  xml:space="preserve"><g><path d="M119.2368774,20.2236938c-3.265625-0.7412109-6.7944336-0.4091797-10.4887695,0.9882813c0,0,0,0-0.0004883,0   c-4.1547852,1.5722656-7.9399414,4.3564453-10.9462891,8.0537109l-5.3266602,6.5517578   c-1.4130859,1.7373047-2.7451172,3.5664063-4.0336914,5.3349609l-0.1098633,0.1513672   c-4.5009766,6.1787109-10.4819336,10.1474609-10.5732422,10.2080078l-0.1655273,0.1171875   c-1.7998047,1.2578125-3.5952148,0.5429688-4.574707-0.7236328c-0.987793-1.2753906-1.2324219-3.2060547,0.4482422-4.6425781   c1.4277344-1.2197266,2.8139648-2.0253906,2.8916016-2.0732422c7.1489258-4.8681641,5.6376953-11.2890625,5.4350586-12.0253906   c-0.6738281-3.0888672-2.7089844-4.9228516-5.8867188-5.3046875c-2.9819336-0.3544922-6.0839844,0.859375-8.2905273,3.2548828   c-1.9663086,2.1367188-2.9233398,4.5214844-3.3183594,5.7519531c-0.1582031,0.4931641-0.2661133,1.0361328-0.3388672,1.7041016   l-0.0195313,0.1699219c-0.4208984,3.3925781-3.0712891,4.9423828-5.2133789,5.2392578   c-2.1831055,0.296875-5.2236328-0.4873047-6.5786133-3.7089844c-0.5712891-1.3574219-0.8071289-2.4267578-0.809082-2.4375   c-0.0136719-0.0615234-0.0332031-0.1230469-0.0576172-0.1806641c-1.237793-2.8994141-2.7885742-4.6757813-4.6103516-5.2802734   c-1.7060547-0.5654297-2.9716797,0.1240234-3.1694336,0.2431641c-0.9804688,0.6660156-1.5742188,1.5888672-1.765625,2.7441406   c-0.4907227,2.9599609,1.9477539,6.7363281,3.4453125,8.7236328c0.4355469,0.578125,0.9580078,1.4980469,0.972168,2.5986328   c0.0141602,1.1132813-0.3828125,1.9970703-1.2128906,2.7021484c-1.0556641,0.8955078-2.6025391,1.1845703-4.1396484,0.7695313   c-5.1748047-1.3925781-7.9956055-7.3037109-8.0297852-7.3769531c-2.059082-4.2460938-6.4179688-10.4326172-8.1962891-12.8955078   c-0.7705078-1.0654297-1.4599609-1.8886719-2.1699219-2.5898438c-4.0664063-4.0136719-8.5024414-4.8837891-11.5083008-4.9082031   c-0.03125,0-0.0620117,0-0.09375,0c-2.6630859,0-5.1411133,0.8564453-6.9858398,2.4169922   c-4.7597656,4.0263672-3.7402344,10.171875-3.703125,10.3701172c1.1103516,9.8193359,14.8071289,14.2236328,15.4697266,14.4277344   c8.0078125,1.8007813,12.9819336,4.1816406,15.7446289,5.8623047c2.3955078,1.4560547,4.1538086,3.4775391,5.0854492,5.8447266   c1.7202148,4.3701172-0.5981445,6.5-0.7080078,6.5976563c-2.5024414,2.2412109-4.3291016,4.1552734-5.4291992,5.6904297   c-0.8276367,1.1542969-1.2265625,2.5048828-1.1235352,3.8046875c0.1064453,1.3339844,0.6845703,2.4033203,1.6723633,3.0927734   c2.3710938,1.6542969,6.2851563,0.6269531,6.7612305,0.4941406c1.2456055-0.4003906,2.3891602-0.5048828,3.3955078-0.3125   c1.2451172,0.2382813,1.8266602,1.2167969,1.9560547,2.0537109c0.1235352,0.8017578-0.1230469,1.8623047-1.1860352,2.4375   c-0.081543,0.0439453-0.1381836,0.0683594-0.1469727,0.0722656c-0.0776367,0.0302734-0.1508789,0.0693359-0.21875,0.1171875   L24.8150024,96.0723267c-10.0839844,7.4707031-10.815918,11.7099609-10.8237305,12.7470703   c-0.5673828,2.8173828-0.2583008,5.1035156,0.918457,6.7978516c1.2548828,1.8056641,3.0952148,2.3037109,3.6000977,2.4101563   c1.1894531,0.4580078,2.3623047,0.6630859,3.5117188,0.6630859c9.9550781,0,18.0668945-15.4511719,18.4335938-16.1621094   c2.3984375-4.328125,7.6884766-10.2333984,7.7192383-10.2685547c1.6333008-1.6992188,3.2255859-2.5654297,4.7329102-2.5732422   c0.0068359-0.0009766,0.0141602-0.0009766,0.0214844-0.0009766c1.5834961,0,2.5454102,0.9609375,2.6230469,1.0390625   c1.7104492,1.5957031,1.6464844,7.7880859,1.1992188,11.3613281c-0.265625,3.3310547,0.4921875,5.6982422,2.2519531,7.0351563   c2.8388672,2.15625,7.1044922,0.6298828,7.3496094,0.5371094c1.9487305-0.8740234,3.1787109-2.2470703,3.6557617-4.0820313   c1.1635742-4.4707031-2.5766602-10.3935547-4.909668-13.5273438c-0.7167969-0.9619141-1.2163086-1.9306641-1.4833984-2.8789063   c-1.065918-3.78125,0.6772461-5.3515625,0.7402344-5.4072266c0.0561523-0.0458984,0.1074219-0.0976563,0.1523438-0.1542969   c0.8579102-1.0849609,1.7753906-1.6005859,2.7573242-1.5546875c0.5249023,0.0302734,1.0727539,0.3037109,1.5429688,0.7724609   c1.1801758,1.1748047,2.2553711,2.0605469,3.1948242,2.6328125c1.3022461,0.7939453,2.8789063,0.8574219,4.1137695,0.1669922   c0.8027344-0.4492188,1.3120117-1.1367188,1.4716797-1.9902344c0.4106445-2.1894531-1.6723633-4.7900391-1.9750977-5.1494141   c-1.6186523-1.6191406-1.0317383-3.5830078-0.9980469-3.6933594c0.262207-0.9052734,2.5488281-1.0605469,3.6665039-0.9482422   l10.2182617,1.515625c3.5795898,0.4765625,6.3818359-0.1503906,8.3217773-1.8730469   c2.6445313-2.3476563,2.6235352-5.8291016,2.6196289-6.0263672c-0.1811523-2.7685547-2.09375-4.5488281-5.3852539-5.0126953   c-2.234375-0.3164063-4.6044922,0.1650391-6.6782227,1.3496094c-3.3256836,1.9003906-6.1210938,2.3085938-6.1733398,2.3154297   c-1.7607422,0.2871094-2.097168-0.09375-2.1103516-0.1103516c-0.0639648-0.0771484-0.1196289-0.3984375,0.1264648-1.0605469   c0.3154297-0.8496094,0.8896484-1.6337891,1.7075195-2.3310547c4.8847656-4.1640625,12.7509766-6.4960938,12.8808594-6.5361328   l22.0834961-7.7597656c1.8500977-0.6494141,3.4448242-1.3505859,4.875-2.1445313   c9.0839844-5.0380859,9.871582-11.2080078,8.9326172-15.4960938   C128.569397,25.5127563,124.4624634,21.4102173,119.2368774,20.2236938z M119.7979126,44.4229126   c-1.3310547,0.7373047-2.8251953,1.3935547-4.5678711,2.0058594L93.1973267,54.171936   c-0.3383789,0.0986328-8.3510742,2.4716797-13.5668945,6.9179688c-1.0805664,0.921875-1.8491211,1.9833984-2.284668,3.1552734   c-0.5883789,1.5830078-0.2138672,2.5205078,0.2036133,3.0283203c0.7138672,0.8681641,2.0151367,1.1318359,3.9511719,0.8183594   c0.128418-0.0175781,3.1855469-0.4521484,6.8696289-2.5576172c1.690918-0.9658203,3.6108398-1.3564453,5.4067383-1.1054688   c3.4941406,0.4921875,3.6254883,2.5019531,3.6665039,3.1083984c0.0004883,0.0273438-0.0039063,2.7412109-1.9648438,4.46875   c-1.4858398,1.3085938-3.7451172,1.7695313-6.6987305,1.3740234l-10.2475586-1.5195313   c-0.5117188-0.0507813-5.0239258-0.4384766-5.8271484,2.3427734c-0.0424805,0.1289063-1.0117188,3.1914063,1.4301758,5.6269531   c0.5668945,0.6865234,1.6762695,2.4296875,1.4873047,3.4365234c-0.0351563,0.1904297-0.1206055,0.4111328-0.4824219,0.6142578   c-0.605957,0.3388672-1.4091797,0.2890625-2.0961914-0.1289063c-0.8056641-0.4912109-1.7558594-1.2792969-2.824707-2.34375   c-0.8178711-0.8144531-1.8271484-1.2939453-2.8417969-1.3505859c-1.1313477-0.0751953-2.7998047,0.2753906-4.3862305,2.2451172   c-0.5014648,0.4726563-2.6030273,2.7919922-1.3007813,7.4101563c0.3334961,1.1835938,0.940918,2.3720703,1.8041992,3.53125   c1.3310547,1.7871094,5.5947266,7.9228516,4.578125,11.8291016c-0.3212891,1.2353516-1.1518555,2.1386719-2.4716797,2.7333984   c-0.0336914,0.0126953-3.4306641,1.2158203-5.3930664-0.2822266c-1.1787109-0.8984375-1.6708984-2.6748047-1.4677734-5.234375   c0.1303711-1.0380859,1.1879883-10.2177734-1.7807617-12.984375c-0.0620117-0.0664063-1.5551758-1.6113281-4.0112305-1.6201172   c-2.1088867-0.0185547-4.1762695,1.0664063-6.2387695,3.2128906c-0.2231445,0.2490234-5.4946289,6.1318359-8.0170898,10.6865234   c-0.0952148,0.1845703-9.6743164,18.4443359-19.5356445,14.5478516c-0.0649414-0.0263672-0.1411133-0.0458984-0.2099609-0.0576172   c-0.0600586-0.0107422-1.4829102-0.2636719-2.4130859-1.6259766c-0.8510742-1.2470703-1.0395508-3.0429688-0.5605469-5.3378906   c0.015625-0.0761719,0.0200195-0.2011719,0.0175781-0.2792969c-0.0009766-0.0361328,0.0136719-3.7441406,9.9970703-11.1396484   l16.4667969-11.6464844c0.0634766-0.0292969,0.1469727-0.0693359,0.2460938-0.1230469   c1.6298828-0.8808594,2.4985352-2.6484375,2.2124023-4.5019531c-0.293457-1.8984375-1.6894531-3.3564453-3.5571289-3.7138672   c-1.3398438-0.2539063-2.8139648-0.1308594-4.3457031,0.3623047c-0.9404297,0.2607422-3.6767578,0.734375-5.0415039-0.2197266   c-0.5024414-0.3505859-0.7636719-0.8623047-0.8232422-1.6103516c-0.065918-0.8291016,0.2021484-1.7099609,0.7548828-2.4804688   c0.6982422-0.9746094,2.15625-2.6962891,5.1201172-5.3505859c0.1445313-0.1240234,3.5146484-3.0888672,1.2529297-8.8359375   c-1.0927734-2.7773438-3.1357422-5.1357422-5.9077148-6.8212891c-2.8901367-1.7578125-8.0727539-4.2451172-16.2651367-6.0830078   c-0.1303711-0.0410156-13.0356445-4.1835938-14.0092773-12.78125c-0.0092773-0.0527344-0.8520508-5.2880859,3.0161133-8.5595703   c1.5014648-1.2705078,3.5444336-1.9628906,5.7724609-1.9443359c2.6347656,0.0205078,6.5292969,0.7890625,10.1181641,4.3320313   c0.6293945,0.6210938,1.2504883,1.3642578,1.9541016,2.3378906c1.7475586,2.4199219,6.0273438,8.4912109,8.0107422,12.5820313   c0.1293945,0.2773438,3.230957,6.8115234,9.3164063,8.4501953c2.1708984,0.5820313,4.3969727,0.1445313,5.9541016-1.1757813   c1.2763672-1.0849609,1.9399414-2.5546875,1.918457-4.2529297c-0.0170898-1.2998047-0.4926758-2.6064453-1.375-3.7763672   c-2.1875-2.9033203-3.3349609-5.5927734-3.0693359-7.1943359c0.1010742-0.609375,0.3920898-1.0595703,0.8408203-1.3691406   c0.0258789-0.0146484,0.6591797-0.3408203,1.5385742-0.0292969c0.8417969,0.2978516,2.0976563,1.2470703,3.3183594,4.0693359   c0.0771484,0.3251953,0.3491211,1.3857422,0.8974609,2.6894531c1.4775391,3.5117188,4.8896484,5.4443359,8.6962891,4.9140625   c3.7451172-0.5175781,6.4628906-3.2548828,6.9243164-6.9746094l0.0224609-0.1943359   c0.0581055-0.5351563,0.1391602-0.9511719,0.2553711-1.3125c0.3452148-1.0751953,1.1787109-3.1552734,2.8857422-5.0087891   c1.7724609-1.9248047,4.2294922-2.9091797,6.5805664-2.6240234c2.3251953,0.2792969,3.690918,1.5107422,4.1757813,3.7666016   c0.0068359,0.0332031,0.015625,0.0654297,0.0258789,0.0976563c0.0180664,0.0546875,1.6948242,5.5146484-4.5737305,9.7871094   c-0.0625,0.0361328-1.5537109,0.8994141-3.1289063,2.2451172c-2.5478516,2.1777344-2.2963867,5.3652344-0.730957,7.3876953   c1.5102539,1.9501953,4.4394531,3.1386719,7.3037109,1.1376953l0.1469727-0.1054688   c0.2568359-0.1679688,6.3383789-4.1972656,11.0610352-10.6806641l0.1103516-0.1513672   c1.2729492-1.7480469,2.5893555-3.5546875,3.96875-5.2509766l5.3266602-6.5517578   c2.7836914-3.4238281,6.2773438-5.9980469,10.1020508-7.4443359c3.3217773-1.2568359,6.4628906-1.5615234,9.3393555-0.9082031   c4.4726563,1.0146484,7.9863281,4.5195313,8.9516602,8.9277344   C128.9009399,36.375061,126.2266235,40.8565063,119.7979126,44.4229126z"></path><path d="M92.7783813,100.1758423c0.7490234,0.3007813,1.5,0.4511719,2.2250977,0.4511719   c0.8833008,0,1.7280273-0.2226563,2.4833984-0.6640625c1.375-0.8046875,2.2592773-2.2265625,2.4907227-4.0019531   c0.21875-1.6806641-0.1806641-3.4941406-1.125-5.1064453c-1.9975586-3.4121094-5.8583984-4.8769531-8.6118164-3.2675781   c-1.3745117,0.8056641-2.2592773,2.2265625-2.4902344,4.0019531c-0.2192383,1.6806641,0.1806641,3.4941406,1.125,5.1064453   C89.819397,98.3086548,91.2056274,99.5449829,92.7783813,100.1758423z M89.7334595,91.8467407   c0.1499023-1.1484375,0.6889648-2.0478516,1.5180664-2.5332031c1.7993164-1.0566406,4.434082,0.0908203,5.8754883,2.5507813   c0.7211914,1.2324219,1.0292969,2.5957031,0.8671875,3.8388672c-0.1494141,1.1484375-0.6884766,2.0478516-1.5180664,2.5332031   s-1.8774414,0.5146484-2.9526367,0.0839844c-1.1630859-0.4667969-2.2011719-1.4033203-2.9223633-2.6357422   C89.8799438,94.453186,89.5718384,93.0908813,89.7334595,91.8467407z"></path><path d="M58.562561,11.3242798c-3.1767578-0.2519531-6.015625,2.7519531-6.3261719,6.6943359   c-0.3100586,3.9404297,2.0219727,7.3515625,5.199707,7.6025391c0.1240234,0.0097656,0.2470703,0.0146484,0.3701172,0.0146484   c3.0249023-0.0009766,5.6582031-2.921875,5.956543-6.7099609c0.1464844-1.8623047-0.284668-3.6689453-1.2143555-5.0859375   C61.565979,12.3428345,60.1504517,11.4492798,58.562561,11.3242798z M61.7686157,18.7695923   c-0.2236328,2.8417969-2.1030273,5.0253906-4.175293,4.8574219c-2.078125-0.1640625-3.5869141-2.609375-3.362793-5.4521484   c0.2158203-2.7412109,1.9663086-4.8652344,3.9555664-4.8652344c0.0727539,0,0.1459961,0.0029297,0.2192383,0.0087891   c0.9580078,0.0751953,1.8354492,0.6503906,2.4707031,1.6181641C61.5640259,15.9854126,61.8809204,17.3467407,61.7686157,18.7695923   z"></path><path d="M14.8682251,76.1709595c0.3071289,0,0.6181641-0.0166016,0.9326172-0.0498047   c1.8583984-0.1943359,3.5556641-0.9472656,4.7797852-2.1201172c1.2929688-1.2382813,1.9130859-2.7939453,1.746582-4.3779297   s-1.0966797-2.9765625-2.6186523-3.9189453c-1.4404297-0.8916016-3.2587891-1.2802734-5.1166992-1.0800781   c-3.9321289,0.4130859-6.8598633,3.328125-6.5268555,6.4980469C8.3721313,74.0391235,11.3340454,76.1709595,14.8682251,76.1709595z    M14.8008423,66.6123657c0.2490234-0.0253906,0.4960938-0.0390625,0.7402344-0.0390625   c1.1499023,0,2.2353516,0.2871094,3.1142578,0.8310547c0.9848633,0.6103516,1.5825195,1.4716797,1.6826172,2.4277344   c0.1005859,0.9560547-0.3046875,1.9228516-1.1411133,2.7246094c-0.9052734,0.8671875-2.1855469,1.4267578-3.6049805,1.5761719   c-2.8398438,0.3007813-5.3198242-1.1464844-5.5375977-3.2197266S11.9658813,66.9111938,14.8008423,66.6123657z"></path></g></svg>