<svg xmlns="http://www.w3.org/2000/svg" xmlns:xlink="http://www.w3.org/1999/xlink" version="1.1" x="0px" y="0px" viewBox="0 0 50 50" enable-background="new 0 0 50 50" xml:space="preserve"><g><path d="M27.1,1c-11.6,0-21,9.5-21,21c0,3,0.6,5.9,1.8,8.6l0.4,0.9H6.7c-0.8,0-1.5,0.3-2.1,0.9c-0.5,0.6-0.8,1.4-0.7,2.2   C4.1,35.1,5.6,46.6,5.7,47H2.8c-0.6,0-1,0.4-1,1c0,0.6,0.4,1,1,1c15.1,0,17.5,0,30.3,0c0.6,0,1-0.4,1-1c0-0.6-0.4-1-1-1h-2.9   c0.1-0.4,0.6-3.9,0.6-4.3c3.8-0.7,7.2-2.4,9.9-4.8c0.1-0.1,0.2-0.1,0.3-0.2c0,0,0-0.1,0.1-0.1c4.3-3.9,7-9.5,7-15.6   C48.2,10.5,38.7,1,27.1,1z M36.7,21c-0.1-3.4-0.5-6.7-1.3-9.7c1.7-0.8,3.4-1.7,4.9-3c3.4,3.2,5.5,7.7,5.8,12.7H36.7z M14.7,31.6   c-0.2-0.9-0.4-1.8-0.7-2.6c0.4-0.1,0.9-0.2,1.5-0.3c0.3,1.5,1.6,2.6,3.2,2.6c1.6,0,2.9-1.1,3.2-2.6c0.5,0.1,1,0.2,1.5,0.3   c-0.3,0.8-0.5,1.7-0.7,2.6H14.7z M34.5,8.2C33.8,6.3,33,4.8,32,3.7c2.5,0.7,4.8,1.8,6.8,3.4c-1.2,0.9-2.5,1.7-3.9,2.4   C34.8,9,34.6,8.6,34.5,8.2z M33,10.1c-1.6,0.5-3.2,0.8-4.9,0.9V3.2c2.3,0.7,3.8,3.8,4.5,5.7C32.8,9.3,32.9,9.7,33,10.1z M26.1,3.2   V11c-1.7-0.1-3.3-0.4-4.9-0.9C22.5,6.4,24.2,3.9,26.1,3.2z M19.4,9.4C18,8.8,16.7,8,15.4,7c2-1.6,4.4-2.8,7-3.4   C21.2,5,20.2,7,19.4,9.4z M26.1,13v8h-1.6c0.1-2.1-0.6-4-1.9-5.4c-0.7-0.8-1.5-1.3-2.4-1.6c0.1-0.7,0.3-1.3,0.4-2   C22.4,12.6,24.3,12.9,26.1,13z M26.1,28.1c-1.2-0.9-2.6-1.3-4.1-1.5c1-0.9,1.8-2.1,2.2-3.6h1.9V28.1z M18.3,19.8   c0.2-0.2,0.5-0.3,0.7-0.3c0.6,0,1,0.6,1.5,1.1c0.6,0.6,1.4,1.2,2,1.5c-0.4,2.2-2,3.8-3.8,3.8c-2,0-3.4-1.9-3.8-4   C16,21.5,17.3,20.6,18.3,19.8z M17.4,27.8c0.4,0.1,0.8,0.2,1.2,0.2c0.4,0,0.9-0.1,1.3-0.2V28c0,0.7-0.6,1.3-1.3,1.3   c-0.7,0-1.3-0.6-1.3-1.3V27.8z M21.1,16.9c0.7,0.7,1.1,1.7,1.3,2.8c0,0,0,0-0.1,0c-0.4-0.3-0.8-0.7-1.1-1.1   c-1.1-1.2-3.1-1.4-4.3-0.3c-0.9,0.8-1.5,1.1-2.1,1.5c0.2-0.9,0.6-1.9,1.3-2.8C17.6,15.3,19.7,15.4,21.1,16.9z M13,23   c0.4,1.4,1.2,2.7,2.2,3.6c-1.1,0.2-2,0.4-2.8,0.8c0,0-0.1,0-0.1,0c0,0-0.1,0-0.1,0.1c-1.1,0.5-2,1.2-2.6,2.1   c-0.9-2.1-1.4-4.3-1.5-6.5H13z M12.2,29.8c0.2,0.5,0.3,1.1,0.5,1.8h-1.8C11.1,30.9,11.5,30.3,12.2,29.8z M25.1,29.9   c0.6,0.5,1.1,1,1.4,1.7h-1.8C24.8,31,24.9,30.4,25.1,29.9z M31.6,37.3c0.3-2.4,0.5-2.9,0.3-3.7c0.4,0.1,0.8,0.2,1.2,0.3   C32.7,35.2,32.2,36.3,31.6,37.3z M34.9,34.7c1.4,0.6,2.7,1.4,3.9,2.3c-2,1.6-4.4,2.8-6.9,3.4C33.2,39,34.2,37,34.9,34.7z M28.4,31   c-0.1-0.2-0.2-0.4-0.3-0.6V23h6.6c0,3.1-0.4,6.3-1.1,9C31.5,31.3,29.3,31,28.4,31z M28.1,21v-8c1.9-0.1,3.7-0.4,5.4-1   c0.7,2.8,1.1,5.9,1.2,9H28.1z M13.9,8.4c1.5,1.2,3.1,2.2,4.9,3c-0.2,0.8-0.4,1.6-0.5,2.4c-1.4,0.1-2.7,0.8-3.7,1.9   c-1.3,1.5-2,3.6-1.8,5.4H8.1C8.4,16.1,10.6,11.6,13.9,8.4z M7.6,46.4L6,34.4c0-0.3,0.1-0.5,0.2-0.6c0.1-0.1,0.3-0.3,0.6-0.3h2.7   c0,0,0,0,0,0c0,0,0,0,0,0c0.2,0,13.6,0,13.8,0c0.2,0,0.2,0,0.4,0c5.4,0,6.5-0.2,6.4,0.8c-1.6,12-1.4,12.6-2.4,12.6   C7.7,47,7.7,47.4,7.6,46.4z M40.3,35.7c-1.5-1.2-3.1-2.2-4.8-2.9c0.8-3,1.2-6.3,1.2-9.7h9.4C45.8,27.9,43.7,32.4,40.3,35.7z"></path><path d="M18,36.5c-2.1,0-3.8,1.7-3.8,3.8c0,2.1,1.7,3.8,3.8,3.8c2.1,0,3.8-1.7,3.8-3.8C21.8,38.2,20.1,36.5,18,36.5z M18,42.1   c-1,0-1.8-0.8-1.8-1.8s0.8-1.8,1.8-1.8c1,0,1.8,0.8,1.8,1.8S19,42.1,18,42.1z"></path></g></svg>