<svg xmlns="http://www.w3.org/2000/svg" xmlns:xlink="http://www.w3.org/1999/xlink" version="1.1" x="0px" y="0px" viewBox="0 0 60 60"  xml:space="preserve"><path d="M7.26,8.04v7.6V27.3c0,2.07,1.69,3.76,3.76,3.76c2.07,0,3.76-1.69,3.76-3.76v-6.86c0-0.97,0.79-1.76,1.76-1.76  s1.76,0.79,1.76,1.76v2.31c0,2.07,1.69,3.76,3.76,3.76c2.07,0,3.76-1.69,3.76-3.76v-4.07h19.02c1.67,0,3.04-1.36,3.04-3.04v-2.8  h2.07c0.43,0,0.79,0.35,0.79,0.79v11.27c0,0.38-0.26,0.7-0.63,0.79l-21.65,5.05c-1.27,0.3-2.16,1.42-2.16,2.72v2.49h-2.7  c-0.55,0-1,0.45-1,1V50.3c0,2.59,2.11,4.7,4.7,4.7c2.59,0,4.7-2.11,4.7-4.7V36.95c0-0.55-0.45-1-1-1h-2.7v-2.49  c0-0.37,0.25-0.69,0.62-0.77l21.65-5.05c1.28-0.3,2.17-1.42,2.17-2.74V13.63c0-1.54-1.25-2.79-2.79-2.79h-2.07v-2.8  c0-1.67-1.36-3.04-3.04-3.04H10.3C8.63,5,7.26,6.36,7.26,8.04z M30,50.3c0,1.49-1.21,2.7-2.7,2.7c-1.49,0-2.7-1.21-2.7-2.7V37.95H30  V50.3z M45.88,8.04v7.6c0,0.57-0.46,1.04-1.04,1.04H25.82v-1.04c0-0.55-0.45-1-1-1s-1,0.45-1,1v2.03c0,0,0,0,0,0s0,0,0,0v5.06  c0,0.97-0.79,1.76-1.76,1.76c-0.97,0-1.76-0.79-1.76-1.76v-2.31c0-2.07-1.69-3.76-3.76-3.76s-3.76,1.69-3.76,3.76v6.86  c0,0.97-0.79,1.76-1.76,1.76c-0.97,0-1.76-0.79-1.76-1.76V15.64v-7.6C9.26,7.47,9.73,7,10.3,7h34.54C45.41,7,45.88,7.47,45.88,8.04z  "></path></svg>